<?xml version="1.0" encoding="utf-8"?>
<!-- Generator: Adobe Illustrator 27.0.0, SVG Export Plug-In . SVG Version: 6.00 Build 0)  -->
<svg version="1.1" id="Layer_1" xmlns="http://www.w3.org/2000/svg" xmlns:xlink="http://www.w3.org/1999/xlink" x="0px" y="0px"
	 viewBox="0 0 450 350" style="enable-background:new 0 0 450 350;" xml:space="preserve">
<g>
	<path d="M445.4,320.9H5.8c-2.6,0-4.6-2.1-4.6-4.6V71.2c0-2.6,2.1-4.6,4.6-4.6h439.5c2.6,0,4.6,2.1,4.6,4.6v245.1
		C450,318.8,447.9,320.9,445.4,320.9z M10.5,311.6h430.3V75.8H10.5V311.6z"/>
	<path d="M445.4,51H5.8c-2.6,0-4.6-2.1-4.6-4.6V4.6C1.2,2.1,3.2,0,5.8,0h439.5c2.6,0,4.6,2.1,4.6,4.6v41.8C450,49,447.9,51,445.4,51
		z M10.5,41.8h430.3V9.3H10.5V41.8z"/>
	<path d="M429.6,75.8h-408c-2.6,0-4.6-2.1-4.6-4.6V46.4c0-2.6,2.1-4.6,4.6-4.6h408c2.6,0,4.6,2.1,4.6,4.6v24.8
		C434.2,73.7,432.1,75.8,429.6,75.8z M26.2,66.5h398.7V51H26.2V66.5z"/>
	<path d="M52.1,350H24c-2.6,0-4.6-2.1-4.6-4.6v-29.1c0-2.6,2.1-4.6,4.6-4.6h28.2c2.6,0,4.6,2.1,4.6,4.6v29.1
		C56.8,347.9,54.7,350,52.1,350z M28.6,340.7h18.9v-19.8H28.6V340.7z"/>
	<path d="M427.2,350H399c-2.6,0-4.6-2.1-4.6-4.6v-29.1c0-2.6,2.1-4.6,4.6-4.6h28.2c2.6,0,4.6,2.1,4.6,4.6v29.1
		C431.8,347.9,429.8,350,427.2,350z M403.7,340.7h18.9v-19.8h-18.9V340.7z"/>
	<path d="M445.4,350H4.6c-2.6,0-4.6-2.1-4.6-4.6c0-2.6,2.1-4.6,4.6-4.6h440.7c2.6,0,4.6,2.1,4.6,4.6C450,347.9,447.9,350,445.4,350z
		"/>
	<path d="M289.7,51c-2.6,0-4.6-2.1-4.6-4.6c0-9-7.3-16.3-16.3-16.3h-87.5c-9,0-16.3,7.3-16.3,16.3c0,2.6-2.1,4.6-4.6,4.6
		c-2.6,0-4.6-2.1-4.6-4.6c0-14.1,11.5-25.6,25.6-25.6h87.5c14.1,0,25.6,11.5,25.6,25.6C294.3,49,292.3,51,289.7,51z"/>
</g>
</svg>
