<?xml version="1.0" encoding="UTF-8"?><svg id="_Layer_" xmlns="http://www.w3.org/2000/svg" viewBox="0 0 790 1110"><path d="M775,1030H15c-8.3,0-15-6.7-15-15V15C0,6.7,6.7,0,15,0H775c8.3,0,15,6.7,15,15V1015c0,8.3-6.7,15-15,15ZM30,1000H760V30H30V1000Z"/><path d="M175,1110H55c-8.3,0-15-6.7-15-15v-80c0-8.3,6.7-15,15-15s15,6.7,15,15v65h90v-65c0-8.3,6.7-15,15-15s15,6.7,15,15v80c0,8.3-6.7,15-15,15Z"/><path d="M735,1110h-120c-8.3,0-15-6.7-15-15v-80c0-8.3,6.7-15,15-15s15,6.7,15,15v65h90v-65c0-8.3,6.7-15,15-15s15,6.7,15,15v80c0,8.3-6.7,15-15,15Z"/><path d="M215,1030c-8.3,0-15-6.7-15-15V15c0-8.3,6.7-15,15-15s15,6.7,15,15V1015c0,8.3-6.7,15-15,15Z"/><circle cx="115" cy="155" r="40"/><circle cx="115" cy="315" r="40"/><circle cx="115" cy="475" r="40"/><path d="M695,950H295c-8.3,0-15-6.7-15-15V95c0-8.3,6.7-15,15-15h400c8.3,0,15,6.7,15,15V935c0,8.3-6.7,15-15,15Zm-385-30h370V110H310V920Z"/><path d="M695,270H295c-8.3,0-15-6.7-15-15s6.7-15,15-15h400c8.3,0,15,6.7,15,15s-6.7,15-15,15Z"/><path d="M615,350h-240c-4,0-7.8-1.6-10.6-4.4l-80-80c-5.9-5.9-5.9-15.4,0-21.2s15.4-5.9,21.2,0l75.6,75.6h227.6l75.6-75.6c5.9-5.9,15.4-5.9,21.2,0s5.9,15.4,0,21.2l-80,80c-2.8,2.8-6.6,4.4-10.6,4.4Z"/><path d="M695,510H295c-8.3,0-15-6.7-15-15s6.7-15,15-15h400c8.3,0,15,6.7,15,15s-6.7,15-15,15Z"/><path d="M615,590h-240c-4,0-7.8-1.6-10.6-4.4l-80-80c-5.9-5.9-5.9-15.4,0-21.2s15.4-5.9,21.2,0l75.6,75.6h227.6l75.6-75.6c5.9-5.9,15.4-5.9,21.2,0s5.9,15.4,0,21.2l-80,80c-2.8,2.8-6.6,4.4-10.6,4.4Z"/><path d="M695,750H295c-8.3,0-15-6.7-15-15s6.7-15,15-15h400c8.3,0,15,6.7,15,15s-6.7,15-15,15Z"/><path d="M615,830h-240c-4,0-7.8-1.6-10.6-4.4l-80-80c-5.9-5.9-5.9-15.4,0-21.2s15.4-5.9,21.2,0l75.6,75.6h227.6l75.6-75.6c5.9-5.9,15.4-5.9,21.2,0,5.9,5.9,5.9,15.4,0,21.2l-80,80c-2.8,2.8-6.6,4.4-10.6,4.4Z"/></svg>