<svg id="Layer_1" data-name="Layer 1" xmlns="http://www.w3.org/2000/svg" viewBox="0 0 125.9 93.3"><path d="M126.4,91.4C126.2,91.2,88,63,87.7,62.9V18.7a1.3,1.3,0,0,0-1.4-1.3H41.7a1.3,1.3,0,0,0-1.4,1.3V62.9L1.3,91.6a1.3,1.3,0,0,0-.2.8v14.8a3.4,3.4,0,0,0,3.4,3.4h119a3.4,3.4,0,0,0,3.4-3.4V92.4A1.1,1.1,0,0,0,126.4,91.4ZM43,20.1H85V62.2H43Zm-.9,44.8H85.9l35.5,26.2H6.6Zm82.1,42.3a.7.7,0,0,1-.7.7H4.5a.7.7,0,0,1-.7-.7V93.8H124.2Z" transform="translate(-1.1 -17.4)" style=""/><path d="M45.4,105a4.2,4.2,0,0,0,0-8.3,4.2,4.2,0,0,0,0,8.3Zm0-5.5a1.4,1.4,0,0,1,1.4,1.4,1.3,1.3,0,0,1-1.4,1.3,1.3,1.3,0,0,1-1.3-1.3A1.3,1.3,0,0,1,45.4,99.5Z" transform="translate(-1.1 -17.4)" style=""/><path d="M57.8,105a4.2,4.2,0,1,0-4.1-4.1A4.1,4.1,0,0,0,57.8,105Zm0-5.5a1.4,1.4,0,0,1,1.4,1.4,1.3,1.3,0,0,1-1.4,1.3,1.4,1.4,0,0,1-1.4-1.3A1.4,1.4,0,0,1,57.8,99.5Z" transform="translate(-1.1 -17.4)" style=""/><path d="M70.2,105a4.2,4.2,0,1,0-4.1-4.1A4.1,4.1,0,0,0,70.2,105Zm0-5.5a1.4,1.4,0,0,1,1.4,1.4,1.4,1.4,0,0,1-1.4,1.3,1.3,1.3,0,0,1-1.4-1.3A1.4,1.4,0,0,1,70.2,99.5Z" transform="translate(-1.1 -17.4)" style=""/><path d="M82.6,105a4.2,4.2,0,0,0,0-8.3,4.2,4.2,0,0,0,0,8.3Zm0-5.5a1.3,1.3,0,0,1,1.3,1.4,1.3,1.3,0,0,1-1.3,1.3,1.3,1.3,0,0,1-1.4-1.3A1.4,1.4,0,0,1,82.6,99.5Z" transform="translate(-1.1 -17.4)" style=""/></svg>
