<svg id="Layer_1" data-name="Layer 1" xmlns="http://www.w3.org/2000/svg" viewBox="0 0 127.8 95.2"><path d="M4.4,95.2A4.4,4.4,0,0,1,0,90.8V76a2.2,2.2,0,0,1,.4-1.3v-.2L39.2,46V2.1A2.3,2.3,0,0,1,41.5,0H86.3a2,2,0,0,1,1.6.7,2,2,0,0,1,.7,1.6V46c5,3.5,35.7,26.2,38.2,28.2h0a1.9,1.9,0,0,1,1,1.9V90.8a4.4,4.4,0,0,1-4.4,4.4Zm118.7-4.7V78.4H4.7V90.5Zm-4.8-16.8L85.5,49.5H42.3L9.5,73.7ZM83.9,44.8V4.7h-40V44.8Z"/><path d="M126.3,75c-.2-.2-38.4-28.4-38.7-28.5V2.3A1.3,1.3,0,0,0,86.3,1H41.6a1.3,1.3,0,0,0-1.4,1.2h0V46.5L1.2,75.2A1.9,1.9,0,0,0,1,76V90.8a3.4,3.4,0,0,0,3.4,3.4h119a3.4,3.4,0,0,0,3.4-3.4h0V76A1.2,1.2,0,0,0,126.3,75ZM42.9,3.7h42V45.8h-42ZM42,48.5H85.8l35.5,26.2H6.5Zm82.1,42.3a.7.7,0,0,1-.7.7H4.4a.7.7,0,0,1-.7-.7V77.4H124.1Z"/><rect x="60.3" y="82.9" width="7.4" height="4.62" rx="2.3"/><rect x="43.5" y="82.9" width="7.4" height="4.62" rx="2.3"/><rect x="77" y="82.9" width="7.4" height="4.62" rx="2.3"/></svg>