<svg id="Layer_1" data-name="Layer 1" xmlns="http://www.w3.org/2000/svg" viewBox="0 0 116.6 41"><g id="heater"><g id="icon"><path d="M69.7,0V4.6h41.1V0ZM52.6,18.3A5.7,5.7,0,0,0,46.9,24a5.7,5.7,0,1,0,5.7-5.7Zm22.8,0A5.7,5.7,0,0,0,69.7,24a5.7,5.7,0,1,0,11.4,0A5.7,5.7,0,0,0,75.4,18.3Zm22.9,0A5.7,5.7,0,0,0,92.6,24a5.7,5.7,0,1,0,5.7-5.7ZM17.1,0V4.6H58.2V0ZM29.7,18.3A5.7,5.7,0,0,0,24,24a5.7,5.7,0,1,0,11.4,0A5.7,5.7,0,0,0,29.7,18.3Zm68.6,0A5.7,5.7,0,0,0,92.6,24a5.7,5.7,0,1,0,5.7-5.7Zm-22.9,0A5.7,5.7,0,0,0,69.7,24a5.7,5.7,0,1,0,11.4,0A5.7,5.7,0,0,0,75.4,18.3Zm-22.8,0A5.7,5.7,0,0,0,46.9,24a5.7,5.7,0,1,0,5.7-5.7Zm-22.9,0A5.7,5.7,0,0,0,24,24a5.7,5.7,0,1,0,11.4,0A5.7,5.7,0,0,0,29.7,18.3ZM5.7,6.9V41H122.3V6.9ZM115.4,34.3H12.6V13.7H115.5V34.3ZM98.3,29.7A5.7,5.7,0,0,0,104,24a5.7,5.7,0,0,0-11.4,0A5.7,5.7,0,0,0,98.3,29.7Zm-22.9,0A5.7,5.7,0,0,0,81.1,24a5.7,5.7,0,1,0-5.7,5.7Zm-22.8,0A5.7,5.7,0,0,0,58.3,24a5.7,5.7,0,1,0-11.4,0A5.7,5.7,0,0,0,52.6,29.7Zm-22.9,0A5.7,5.7,0,0,0,35.4,24a5.8,5.8,0,0,0-5.7-5.7,5.7,5.7,0,0,0,0,11.4Z" transform="translate(-5.7)"/></g></g></svg>