<?xml version="1.0" encoding="utf-8"?>
<!-- Generator: Adobe Illustrator 27.0.0, SVG Export Plug-In . SVG Version: 6.00 Build 0)  -->
<svg version="1.1" id="Layer_1" xmlns="http://www.w3.org/2000/svg" xmlns:xlink="http://www.w3.org/1999/xlink" x="0px" y="0px"
	 viewBox="0 0 1796 2220.6" style="enable-background:new 0 0 1796 2220.6;" xml:space="preserve">
<g>
	<path d="M1796,647.1h-204.5v50.5H1354v-91c0-42.4-34.5-77-77-77h-97.4v-172c18.7-14.1,34.8-31.4,47.5-51.1
		c18.6,3,38.4,5.8,59.9,8.6c122,15.7,250.8,22.1,283.9,22.1c84.2,0,152.8-62.1,152.8-138.3c0-76.3-68.5-138.3-152.8-138.3
		c-33.1,0-161.9,6.4-283.9,22.1c-21.4,2.8-41.3,5.6-59.9,8.6C1191.7,36.4,1130,0,1060,0S928.4,36.4,892.9,91.2
		c-18.6-3-38.4-5.8-59.9-8.6c-122-15.7-250.8-22.1-283.9-22.1c-84.2,0-152.8,62.1-152.8,138.3c0,76.3,68.5,138.3,152.8,138.3
		c33.1,0,161.9-6.4,283.9-22.1c21.4-2.8,41.3-5.6,59.9-8.6c12.7,19.7,28.8,37,47.5,51.1v172H843c-42.4,0-77,34.5-77,77v91H363.6
		c-172.6,0-313.1,140.4-313.1,313.1V1487H0v204.5h543.4V1487h-50.5v-347H767c9.5,94.2,89.3,168,186,168h214.1
		c96.7,0,176.5-73.8,186-168h238.5v50.5H1796V647.1z M1274.4,1121c0,6.5-0.7,12.8-1.8,19c-9,50.1-52.9,88.4-105.6,88.4H953
		c-52.7,0-96.6-38.2-105.6-88.4c-1.1-6.2-1.8-12.5-1.8-19v-20.8v-39.8V777.3v-39.8v-39.8v-88.4h94.8h239.2h94.8v88.4v39.8v39.8
		v283.1v39.8V1121z M79.6,1566.6h384.2v7.9v37.3H79.6v-37.3V1566.6z M413.2,1131.6V1487H130.2v-476.2
		c0-128.7,104.7-233.5,233.5-233.5H766v283.1H484.5C445.2,1060.4,413.2,1092.3,413.2,1131.6z M796.3,239.4
		c-110.5,12.9-220.1,18.2-247.2,18.2c-40.3,0-73.2-26.3-73.2-58.7c0-32.4,32.8-58.7,73.2-58.7c27.1,0,136.6,5.2,247.2,18.2
		c25.1,2.9,47.4,6,67.4,9c-1.6,10.3-2.5,20.8-2.5,31.6c0,10.7,0.9,21.3,2.5,31.6C843.7,233.4,821.5,236.5,796.3,239.4z M942.2,216
		c-0.8-5.6-1.4-11.3-1.4-17.2c0-5.8,0.6-11.5,1.4-17.2c2-13.6,6.2-26.4,12.3-38.1c6.9-13.1,16.2-24.8,27.3-34.5
		c21-18.3,48.3-29.5,78.3-29.5s57.3,11.2,78.3,29.5c11.1,9.7,20.4,21.3,27.3,34.5c6.1,11.7,10.3,24.5,12.3,38.1
		c0.8,5.6,1.4,11.3,1.4,17.2c0,5.8-0.6,11.5-1.4,17.2c-2,13.6-6.2,26.4-12.3,38.1c-1.4,2.7-3,5.4-4.7,8
		c-6.2,9.9-13.8,18.8-22.6,26.5c-5.7,5-12,9.5-18.6,13.3c-17.6,10.2-37.9,16.2-59.7,16.2s-42.1-6-59.7-16.2
		c-6.6-3.9-12.8-8.3-18.6-13.3c-8.8-7.7-16.4-16.6-22.6-26.5c-1.6-2.6-3.2-5.3-4.7-8C948.3,242.4,944.1,229.6,942.2,216z
		 M1323.7,158.3c110.5-12.9,220.1-18.2,247.2-18.2c40.3,0,73.2,26.3,73.2,58.7c0,32.4-32.8,58.7-73.2,58.7
		c-27.1,0-136.6-5.2-247.2-18.2c-25.1-2.9-47.4-6-67.4-9c1.6-10.3,2.5-20.8,2.5-31.6c0-10.7-0.9-21.3-2.5-31.6
		C1276.3,164.3,1298.6,161.3,1323.7,158.3z M1020.1,393.7c12.9,2.6,26.3,4,40,4s27.1-1.4,40-4v136h-79.9V393.7z M1354,777.3h237.5
		v283.1H1354V777.3z M1716.4,1110.9h-45.2V726.7h45.2V1110.9z"/>
	<path d="M438.8,2053.6c0-78.7-111.9-245.2-134.3-277.8l-32.8-47.7l-32.8,47.7c-22.4,32.6-134.3,199.2-134.3,277.8
		c0,92.1,74.9,167.1,167.1,167.1C363.8,2220.6,438.8,2145.7,438.8,2053.6z M271.7,2141c-48.2,0-87.5-39.2-87.5-87.4
		c0-29,41.1-108.7,87.5-182.7c46.4,73.9,87.4,153.7,87.4,182.7C359.1,2101.8,319.9,2141,271.7,2141z"/>
</g>
</svg>
