<svg xmlns="http://www.w3.org/2000/svg" x="0px" y="0px" viewBox="0 0 128 128"> <style type="text/css"> .st0{display:none;} .st1{display:inline;} </style> <g id="bed_1_" class="st0"> <g id="icon" class="st1"> <g> <path class="st2" d="M120.1,69.9l-15.8-29.5V20.7H19.6l0.1,19.7L5.9,69.9H0v37.4h9.9v-7.9h108.3v7.9h9.8V69.9H120.1z M11.8,69.9 l13.8-29.5l3.9-7.9h27.6l2,2l2,2l2-2l2-2h29.5l3.9,7.9l15.8,29.5H11.8z M53.2,34.5H35.4c-3.3,0-5.9,2.6-5.9,5.9l-2,5.9 c0,3.3,0.7,5.9,3.9,5.9h23.6c3.3,0,3.9-2.6,3.9-5.9v-5.9C59.1,37.1,56.4,34.5,53.2,34.5z M88.6,34.5H68.9c-3.3,0-5.9,2.6-5.9,5.9 v5.9c0,3.3,2.6,5.9,5.9,5.9h21.7c3.3,0,5.9-2.6,5.9-5.9l-2-5.9C94.5,37.1,91.9,34.5,88.6,34.5z"/> </g> </g> </g> <g id="lamp_1_" class="st0"> <g id="holder" class="st1"> <g> <polygon class="st2" points="102.5,88.6 102.5,73.9 97.6,73.9 97.6,88.6 92.6,88.6 92.6,96 107.4,96 107.4,88.6 "/> </g> </g> <g id="icon_1_" class="st1"> <g> <path class="st2" d="M117.8,73.9L117.8,73.9h0.1h7.4l-0.7-1.9l0,0L99.5,0l-1.9,0.5V0H31.1v0.9l-1.7-0.4l-24.1,66h0l0,0.1l-1.8,5 l0,0l-0.8,2.3h43.1l9.8,36.9h-7.4v4.9h-9.8V128h49.2v-12.3h-9.8v-4.9h-7.4l9.8-36.9H117.8z M13.2,66.5L34.7,7.4h59.8l20.6,59.1 H13.2z"/> </g> </g> </g> <g id="cupboard_1_" class="st0"> <g id="icon_2_" class="st1"> <g> <path class="st2" d="M2.2,0v13.2h11V128h6.6v-8.8h90.5v8.8h6.6V13.2h8.8V0H2.2z M61.8,112.6H19.9V13.2h41.9V112.6z M110.3,112.6 H68.4V13.2h41.9V112.6z M59.6,53H53v17.7h6.6V53z M77.2,53h-6.6v17.7h6.6V53z"/> </g> </g> </g> <g id="fan_1_" class="st0"> <g id="icon_3_" class="st1"> <g> <path class="st2" d="M54,43.1c2-2.7,5.2-4.5,8.8-4.5c2.2,0,4.3,0.7,6,1.8c0-2,0-4.4,0-7.2c0-10.7-1.2-18.8-13.6-18.8 c-12.4,0-6.8,7.4-6.8,18.2C48.4,37.1,50.9,40.6,54,43.1z M51.9,49.5c0-0.2,0-0.4,0-0.6c-1.7,0.7-3.8,1.7-6.3,2.8 c-9.6,4.3-14,8.6-8.8,19.6c5.2,11,7.1,3.1,16.7-1.2c4.3-1.9,6.4-5.9,7.3-9.9C55.8,59.3,51.9,54.9,51.9,49.5z M74.2,95.5 c21.8-4.7,38.1-24.1,38.1-47.2C112.3,21.6,90.7,0,64,0S15.7,21.6,15.7,48.3c0,23.2,16.4,42.6,38.2,47.2c0.2,0,0.4,1.1,0.4,1.1 v14.5L30.2,128h67.6l-24.1-16.9V96.6C73.7,96.6,73.6,95.6,74.2,95.5z M64,89.3c-22.7,0-41-18.4-41-41c0-22.7,18.4-41,41-41 c22.7,0,41,18.4,41,41C105,71,86.7,89.3,64,89.3z M96,63.1c7.2-9.8-1.9-9.8-10.3-16.2c-3.9-3-8.7-2.8-12.8-1.4 c0.5,1.2,0.8,2.6,0.8,4c0,4-2.1,7.4-5.3,9.3c1.4,1.1,3.1,2.4,5.1,3.9C81.8,69.1,88.8,72.9,96,63.1z M71.2,49.5 c0-4.7-3.8-8.5-8.5-8.5c-4.7,0-8.5,3.8-8.5,8.5s3.8,8.5,8.5,8.5C67.5,58,71.2,54.2,71.2,49.5z"/> </g> </g> <g id="rings" class="st1"> <g> <path class="st2" d="M64,26.6c-12,0-21.7,9.7-21.7,21.7C42.3,60.3,52,70,64,70s21.7-9.7,21.7-21.7C85.7,36.3,76,26.6,64,26.6z M64,68.5c-11.2,0-20.2-9.1-20.2-20.2c0-11.2,9.1-20.2,20.2-20.2s20.2,9.1,20.2,20.2C84.2,59.5,75.2,68.5,64,68.5z M64,19.3 c-16,0-29,13-29,29c0,16,13,29,29,29s29-13,29-29C93,32.3,80,19.3,64,19.3z M64,75.3c-14.9,0-27-12.1-27-27c0-14.9,12.1-27,27-27 c14.9,0,27,12.1,27,27C91,63.2,78.9,75.3,64,75.3z M64,12.1c-20,0-36.2,16.2-36.2,36.2c0,20,16.2,36.2,36.2,36.2 s36.2-16.2,36.2-36.2C100.2,28.3,84,12.1,64,12.1z M64,82c-18.6,0-33.7-15.1-33.7-33.7c0-18.6,15.1-33.7,33.7-33.7 s33.7,15.1,33.7,33.7C97.7,66.9,82.6,82,64,82z"/> </g> </g> </g> <g id="toaster_1_" class="st0"> <g id="icon_4_" class="st1"> <g> <path class="st2" d="M87.4,68.1c-2.2,0-4.1,1.8-4.1,4.1c0,2.2,1.8,4.1,4.1,4.1c2.2,0,4.1-1.8,4.1-4.1 C91.4,69.9,89.6,68.1,87.4,68.1z M91.4,37.6H20.3v4.1h71.1V37.6z M87.4,49.8c-3.4,0-6.1,2.7-6.1,6.1c0,3.4,2.7,6.1,6.1,6.1 c3.4,0,6.1-2.7,6.1-6.1C93.5,52.5,90.7,49.8,87.4,49.8z M95.5,27.4H16.3C7.3,27.4,0,34.7,0,43.7v50.8h12.2v6.1h16.3v-6.1h56.9 v6.1h16.3v-6.1h10.2V43.7C111.7,34.7,104.5,27.4,95.5,27.4z M105.7,88.4H6.1V43.7c0-4.5,5.7-10.2,10.2-10.2h79.2 c4.5,0,10.2,5.7,10.2,10.2V88.4z M113.8,41.7v10.2H128V41.7H113.8z"/> </g> </g> </g> <g id="swing_x5F_machine_1_" class="st0"> <g id="icon_5_" class="st1"> <g> <path class="st2" d="M92.8,57.6c2.9,0,5.3-2.4,5.3-5.3c0-2.9-2.4-5.3-5.3-5.3c-2.9,0-5.3,2.4-5.3,5.3 C87.5,55.2,89.9,57.6,92.8,57.6z M96,19.2h-8.5v10.7H0v38.4h6.4v4.3h4.3v8.5h4.3v-8.5h4.3v-4.3h6.4l-0.1-10.7h42.7v27.7H0v23.5 h115.2V85.3V29.9H96V19.2z M108.8,36.3v49.1H74.6l0-34.1H19.2v10.7H6.4V36.3H108.8z M121.6,40.5v-4.3h-4.3v32h4.3V64h6.4V40.5 H121.6z M92.8,72.5c2.9,0,5.3-2.4,5.3-5.3c0-2.9-2.4-5.3-5.3-5.3c-2.9,0-5.3,2.4-5.3,5.3C87.5,70.1,89.9,72.5,92.8,72.5z"/> </g> </g> </g> <g id="toilet_1_" class="st0"> <g id="icon_6_" class="st1"> <g> <path class="st2" d="M77.5,17.2h14.8v-4.9H77.5V17.2z M104.3,56.6c-0.4-1.7-1.3-3.4-2.6-4.9h0.5L107.1,0H20.9l4.9,51.7h0.5 c-1.3,1.5-2.2,3.2-2.6,4.9c-0.1,0-0.2,0-0.3,0c0,0.6,0,1.1,0,1.7c0,0.3,0,0.5,0,0.8c0,0.7,0.1,1.5,0.3,2.2 c1.3,12.1,7.6,22.6,16.6,29.3l-4.6,32.5v4.9h56.6v-4.9l-4.6-32.5c9.1-6.7,15.4-17.3,16.7-29.3c0.2-0.7,0.3-1.4,0.3-2.2 c0-0.3,0-0.5,0-0.8c0-0.6,0-1.1,0-1.7C104.5,56.6,104.4,56.6,104.3,56.6z M40.6,123.1l4.5-29.4c5.6,3.1,12.1,4.8,18.9,4.8 c6.8,0,13.2-1.7,18.9-4.8l4.5,29.4H40.6z M64,93.5c-15,0-27.8-9.5-33.1-23c7.4,5,19.4,8.3,33.1,8.3c13.6,0,25.7-3.3,33.1-8.3 C91.8,84,79,93.5,64,93.5z M64,71.4c-18.4,0-33.2-5.5-33.2-12.3S45.6,46.8,64,46.8c18.4,0,33.2,5.5,33.2,12.3S82.4,71.4,64,71.4z M64,39.4c-14,0-26.3,3.4-33.6,8.7L25.9,7.4h76.3L97.6,48C90.3,42.8,78,39.4,64,39.4z"/> </g> </g> </g> <g id="vacuum_x5F_cleaner_1_" class="st0"> <g id="icon_7_" class="st1"> <g> <path class="st2" d="M68.5,94.9c-4.2,0-7.6,3.4-7.6,7.6s3.4,7.6,7.6,7.6c4.2,0,7.6-3.4,7.6-7.6S72.7,94.9,68.5,94.9z M68.2,106 c-1.8,0-3.2-1.4-3.2-3.2c0-1.8,1.4-3.2,3.2-3.2c1.7,0,3.2,1.4,3.2,3.2C71.4,104.6,69.9,106,68.2,106z M63,76.6v16 c1.6-0.8,3.4-1.3,5.2-1.3c0.4,0,0.7,0,1,0.1V77.6c0-12.2,9.9-22,22-22c12.2,0,22,9.9,22,22V79c2.3,0.4,4.4,1.2,6.3,2.4v-3.8 c0-15.6-12.7-28.3-28.3-28.3c-7.6,0-14.5,3-19.6,7.9c-0.2,0.2-0.5,0.4-0.9,0.2c-0.9-0.4-2.9-1.1-5.6-1.8c-1.1,2.3-1.6,3.7-2.7,6 C49.2,55.3,46.2,62.6,46.2,49v-7.7v-0.2v-0.3V28.3c0-8.1-6.6-14.7-14.7-14.7c-8.1,0-14.7,6.6-14.7,14.7v73.4H0v8.4h39.9v-8.4 H23.1V28.3c0-4.6,3.8-8.4,8.4-8.4c4.6,0,8.4,3.8,8.4,8.4v12.6v0.8V49c0,7.7,1.5,14,8.8,14.9c-0.9-0.1,6.9,0.1,10.1,4.3 c-0.8,2.4-2.1,6.3-2.1,6.3L63,76.6z M110.2,82.9c-7.5,0-13.6,6.1-13.6,13.6c0,7.5,6.1,13.6,13.6,13.6c7.5,0,13.6-6.1,13.6-13.6 C123.8,89,117.7,82.9,110.2,82.9z M110.2,103.9c-4.1,0-7.3-3.3-7.3-7.3s3.3-7.3,7.3-7.3s7.3,3.3,7.3,7.3S114.2,103.9,110.2,103.9 z M107,74.5c0-8.1-6.6-14.7-14.7-14.7c-8.1,0-14.7,6.6-14.7,14.7v4.2H107V74.5z M81.8,74.5c0-5.8,4.7-10.5,10.5-10.5 c5.8,0,10.5,4.7,10.5,10.5H81.8z M79.7,101.8c0,0.3,0.1,0.7,0.1,1c0,1.9-0.5,3.7-1.3,5.2h18.1c-1.5-1.8-2.7-3.9-3.5-6.3H79.7z"/> </g> </g> </g> <g id="dishwasher_1_" class="st0"> <g id="icon_8_" class="st1"> <g> <path class="st2" d="M106.3,41.1H21.7v70h84.5V41.1z M101.4,106.3H26.6V45.9h74.9V106.3z M100.2,24.2c3.3,0,6-2.7,6-6 c0-3.3-2.7-6-6-6c-3.3,0-6,2.7-6,6C94.2,21.4,96.9,24.2,100.2,24.2z M76.1,24.2c3.3,0,6-2.7,6-6c0-3.3-2.7-6-6-6 c-3.3,0-6,2.7-6,6C70,21.4,72.7,24.2,76.1,24.2z M2.4,0v128h123.2V0H2.4z M118.3,120.8H9.7V33.8h108.7V120.8z M118.3,29H9.7V7.2 h108.7V29z M62.8,12.1H14.5v12.1h48.3V12.1z"/> </g> </g> <g id="rack" class="st1"> <g> <path class="st2" d="M101.4,89.4v-2.4H26.6v2.4h7.2v4.8h-7.2v2.4h7.2v4.8h-7.2v2.4h74.9v-2.4H86.9v-4.8h14.5v-2.4H86.9v-4.8 H101.4z M72.5,89.4v4.8h-7.2v-4.8H72.5z M62.8,89.4v4.8h-7.2v-4.8H62.8z M53.1,89.4v4.8h-7.2v-4.8H53.1z M36.2,89.4h7.2v4.8h-7.2 V89.4z M36.2,101.4v-4.8h7.2v4.8H36.2z M45.9,101.4v-4.8h7.2v4.8H45.9z M55.5,101.4v-4.8h7.2v4.8H55.5z M65.2,101.4v-4.8h7.2v4.8 H65.2z M84.5,101.4h-9.7v-4.8h9.7V101.4z M84.5,94.2h-9.7v-4.8h9.7V94.2z"/> </g> </g> <g id="plate" class="st1"> <g> <path class="st2" d="M53.1,67.6c-8,0-14.5,6.5-14.5,14.5c0,8,6.5,14.5,14.5,14.5c8,0,14.5-6.5,14.5-14.5 C67.6,74.1,61.1,67.6,53.1,67.6z M53.1,94.2c-6.7,0-12.1-5.4-12.1-12.1c0-6.7,5.4-12.1,12.1-12.1c6.7,0,12.1,5.4,12.1,12.1 C65.2,88.8,59.8,94.2,53.1,94.2z M53.1,60.4c-12,0-21.7,9.7-21.7,21.7c0,12,9.7,21.7,21.7,21.7c12,0,21.7-9.7,21.7-21.7 C74.9,70.1,65.1,60.4,53.1,60.4z M53.1,99c-9.3,0-16.9-7.6-16.9-16.9c0-9.3,7.6-16.9,16.9-16.9c9.3,0,16.9,7.6,16.9,16.9 C70,91.4,62.5,99,53.1,99z"/> </g> </g> <g id="glass" class="st1"> <g> <path class="st2" d="M94.2,62.8H79.7L74.9,99h21.7L94.2,62.8z M77.3,96.6l4.8-31.4h9.7l2.4,31.4H77.3z"/> </g> </g> <g id="lines" class="st1"> <g> <path class="st2" d="M43.6,45.4l-1.3-2L24,56l1.3,2L43.6,45.4z M51.9,45.8L21.6,65.6l1.3,2l33.6-21.8H51.9z"/> </g> </g> </g> <g id="iron_1_" class="st0"> <g id="icon_9_" class="st1"> <g> <path class="st2" d="M59.7,53.3C46,57,29.9,70.4,29.9,70.4h59.7V51.2C89.6,51.2,73.7,49.6,59.7,53.3z M85.3,55.5v10.7h-8.5v-4.3 H59.7v4.3H42.7c0,0,6.9-5.6,19.2-8.5C71.6,55.3,85.3,55.5,85.3,55.5z M115.2,49.2v-4.4h-4.3v-6.4c0,0-30.7-1.8-55.5,2.7v-4.9 H38.4V46c-3.4,1.5-6.3,3.2-8.5,5.2C13.6,66,0,91.7,0,91.7h100.3V74.7h5.9h4.8V57.6h4.3v-4.3H128v-4.3L115.2,49.2z M104.5,68.3 H93.9v6.4H21.3l-4.3,4.3h76.8v6.4H12.8c0,0,6.1-14.8,23.5-29.9c17.1-14.8,68.3-10.7,68.3-10.7V68.3z"/> </g> </g> </g> <g id="tv_1_" class="st0"> <g id="icon_10_" class="st1"> <path class="st2" d="M128,96V17.8H0V96h42.7c0,0,0,2.3,0,6.3c0,3-7.1,7.9-7.1,7.9h54.5c0,0-9.5-4.7-9.5-7.5c0-4.1,0-6.7,0-6.7H128 z M105.5,91.3c-2,0-3.6-1.6-3.6-3.6s1.6-3.6,3.6-3.6c2,0,3.6,1.6,3.6,3.6S107.4,91.3,105.5,91.3z M115,91.3c-2,0-3.6-1.6-3.6-3.6 s1.6-3.6,3.6-3.6c2,0,3.6,1.6,3.6,3.6S116.9,91.3,115,91.3z M7.1,79.4V24.9h113.8v54.5H7.1z"/> </g> </g> <g id="washing_x5F_machine_1_" class="st0"> <g id="icon_11_" class="st1"> <g> <path class="st2" d="M64,112.6c18.4,0,33.3-14.9,33.3-33.3C97.3,61,82.4,46.1,64,46.1c-18.4,0-33.3,14.9-33.3,33.3 C30.7,97.7,45.6,112.6,64,112.6z M64,51.2c15.6,0,28.2,12.6,28.2,28.2c0,15.6-12.6,28.2-28.2,28.2c-15.5,0-28.2-12.6-28.2-28.2 C35.8,63.8,48.4,51.2,64,51.2z M64,102.4c6.8,0,13-3,17.2-7.7c3.6-4.1,5.8-9.4,5.8-15.3c0-12.7-10.3-23-23-23 c-12.7,0-23,10.3-23,23C41,92.1,51.3,102.4,64,102.4z M54.8,87.8l-1.3-2.2l22.2-12.8L77,75L54.8,87.8z M75.4,67.1l1.3,2.2 L50.1,84.7l-1.3-2.2L75.4,67.1z M48.6,12.8H23v15.4h25.6V12.8z M46.1,25.6H25.6V15.4h20.5V25.6z M61.4,23h-7.7v5.1h7.7V23z M71.7,23H64v5.1h7.7V23z M7.7,0v128h112.6V0H7.7z M112.6,120.3H15.4V38.4h97.3V120.3z M112.6,33.3H15.4V7.7h97.3V33.3z M81.9,23 h-7.7v5.1h7.7V23z M96,28.2c4.9,0,9-4,9-9c0-4.9-4-9-9-9c-4.9,0-9,4-9,9C87,24.1,91.1,28.2,96,28.2z"/> </g> </g> </g> <g id="fridge_1_" class="st0"> <g id="icon_12_" class="st1"> <g> <path class="st2" d="M41.1,21.7h-4.8v19.3h4.8V21.7z M21.7,0v128h84.5V0H21.7z M99,120.8H29V53.1h70V120.8z M99,48.3H29V7.2h70 V48.3z M41.1,58h-4.8v29h4.8V58z"/> </g> </g> </g> <g id="heater_1_"> <g id="icon_13_"> <path class="st2" d="M33.1,54.9v4.6h61.7v-4.6H33.1z M69.7,0v4.6h41.1V0H69.7z M52.6,18.3c-3.2,0-5.7,2.6-5.7,5.7s2.6,5.7,5.7,5.7 s5.7-2.6,5.7-5.7S55.7,18.3,52.6,18.3z M33.1,54.9v4.6h61.7v-4.6H33.1z M17.1,45.7V96h93.7V45.7H17.1z M106.3,91.4H21.7V50.3h84.6 V91.4z M94.9,54.9H33.1v4.6h61.7V54.9z M75.4,18.3c-3.2,0-5.7,2.6-5.7,5.7s2.6,5.7,5.7,5.7s5.7-2.6,5.7-5.7S78.6,18.3,75.4,18.3z M98.3,18.3c-3.2,0-5.7,2.6-5.7,5.7s2.6,5.7,5.7,5.7s5.7-2.6,5.7-5.7S101.4,18.3,98.3,18.3z M17.1,0v4.6h41.1V0H17.1z M29.7,18.3 c-3.2,0-5.7,2.6-5.7,5.7s2.6,5.7,5.7,5.7s5.7-2.6,5.7-5.7S32.9,18.3,29.7,18.3z M98.3,18.3c-3.2,0-5.7,2.6-5.7,5.7 s2.6,5.7,5.7,5.7s5.7-2.6,5.7-5.7S101.4,18.3,98.3,18.3z M75.4,18.3c-3.2,0-5.7,2.6-5.7,5.7s2.6,5.7,5.7,5.7s5.7-2.6,5.7-5.7 S78.6,18.3,75.4,18.3z M52.6,18.3c-3.2,0-5.7,2.6-5.7,5.7s2.6,5.7,5.7,5.7s5.7-2.6,5.7-5.7S55.7,18.3,52.6,18.3z M29.7,18.3 c-3.2,0-5.7,2.6-5.7,5.7s2.6,5.7,5.7,5.7s5.7-2.6,5.7-5.7S32.9,18.3,29.7,18.3z M17.1,45.7V96h93.7V45.7H17.1z M106.3,91.4H21.7 V50.3h84.6V91.4z M94.9,54.9H33.1v4.6h61.7V54.9z M5.7,6.9V128h116.6V6.9H5.7z M115.4,121.1H12.6v-16h102.9V121.1z M115.4,100.6 H12.6V38.9h102.9V100.6z M115.4,34.3H12.6V13.7h102.9V34.3z M110.9,45.7H17.1V96h93.7V45.7z M106.3,91.4H21.7V50.3h84.6V91.4z M98.3,29.7c3.2,0,5.7-2.6,5.7-5.7s-2.6-5.7-5.7-5.7s-5.7,2.6-5.7,5.7S95.1,29.7,98.3,29.7z M94.9,54.9H33.1v4.6h61.7V54.9z M75.4,29.7c3.2,0,5.7-2.6,5.7-5.7s-2.6-5.7-5.7-5.7s-5.7,2.6-5.7,5.7S72.3,29.7,75.4,29.7z M52.6,29.7c3.2,0,5.7-2.6,5.7-5.7 s-2.6-5.7-5.7-5.7s-5.7,2.6-5.7,5.7S49.4,29.7,52.6,29.7z M29.7,29.7c3.2,0,5.7-2.6,5.7-5.7s-2.6-5.7-5.7-5.7S24,20.8,24,24 S26.6,29.7,29.7,29.7z"/> </g> </g> <g id="microwave_x5F_oven_1_" class="st0"> <path id="icon_14_" class="st3" d="M14.5,39.2v45.4h70.2V39.2H14.5z M80.5,80.5H18.6V43.4h61.9V80.5z M106.3,82.6 c-1.7,0-3.1,1.4-3.1,3.1s1.4,3.1,3.1,3.1s3.1-1.4,3.1-3.1S108,82.6,106.3,82.6z M14.5,39.2v45.4h70.2V39.2H14.5z M80.5,80.5H18.6 V43.4h61.9V80.5z M106.3,82.6c-1.7,0-3.1,1.4-3.1,3.1s1.4,3.1,3.1,3.1s3.1-1.4,3.1-3.1S108,82.6,106.3,82.6z M114.6,82.6 c-1.7,0-3.1,1.4-3.1,3.1s1.4,3.1,3.1,3.1s3.1-1.4,3.1-3.1S116.3,82.6,114.6,82.6z M110.5,51.6c-4,0-7.2,3.2-7.2,7.2 s3.2,7.2,7.2,7.2c4,0,7.2-3.2,7.2-7.2S114.4,51.6,110.5,51.6z M103.2,37.2v8.3h14.5v-8.3H103.2z M14.5,39.2v45.4h70.2V39.2H14.5z M80.5,80.5H18.6V43.4h61.9V80.5z M106.3,82.6c-1.7,0-3.1,1.4-3.1,3.1s1.4,3.1,3.1,3.1s3.1-1.4,3.1-3.1S108,82.6,106.3,82.6z M114.6,82.6c-1.7,0-3.1,1.4-3.1,3.1s1.4,3.1,3.1,3.1s3.1-1.4,3.1-3.1S116.3,82.6,114.6,82.6z M110.5,51.6c-4,0-7.2,3.2-7.2,7.2 s3.2,7.2,7.2,7.2c4,0,7.2-3.2,7.2-7.2S114.4,51.6,110.5,51.6z M103.2,37.2v8.3h14.5v-8.3H103.2z M103.2,37.2v8.3h14.5v-8.3H103.2z M110.5,51.6c-4,0-7.2,3.2-7.2,7.2s3.2,7.2,7.2,7.2c4,0,7.2-3.2,7.2-7.2S114.4,51.6,110.5,51.6z M114.6,82.6 c-1.7,0-3.1,1.4-3.1,3.1s1.4,3.1,3.1,3.1s3.1-1.4,3.1-3.1S116.3,82.6,114.6,82.6z M0,24.8v74.3h12.4v4.1h22.7v-4.1h55.7v4.1h22.7 v-4.1H128V24.8H0z M92.9,92.9H6.2V31h86.7V92.9z M121.8,92.9H99.1V31h22.7V92.9z"/> </g> </svg>
