<?xml version="1.0" encoding="utf-8"?>
<!-- Generator: Adobe Illustrator 27.0.0, SVG Export Plug-In . SVG Version: 6.00 Build 0)  -->
<svg version="1.1" id="Layer_1" xmlns="http://www.w3.org/2000/svg" xmlns:xlink="http://www.w3.org/1999/xlink" x="0px" y="0px"
	 viewBox="0 0 413 242.7" style="enable-background:new 0 0 413 242.7;" xml:space="preserve">
<g>
	<path d="M10.2,31h41.1V10.2C51.3,4.6,55.9,0,61.5,0h72.6c5.6,0,10.2,4.6,10.2,10.2V31h124.3V10.2c0-5.6,4.6-10.2,10.2-10.2h72.6
		c5.6,0,10.2,4.6,10.2,10.2V31h41.1c5.6,0,10.2,4.6,10.2,10.2v191.4c0,5.6-4.6,10.2-10.2,10.2H10.2c-5.6,0-10.2-4.6-10.2-10.2V41.2
		C0,35.5,4.6,31,10.2,31L10.2,31z M102.1,182.5h208.8V91.2H249V112c0,5.6-4.6,10.2-10.2,10.2h-64.6c-5.6,0-10.2-4.6-10.2-10.2V91.2
		h-61.9V182.5L102.1,182.5z M184.4,91.2v10.6h44.2V91.2H184.4L184.4,91.2z M331.3,192.7c0,5.6-4.6,10.2-10.2,10.2H91.9
		c-5.6,0-10.2-4.6-10.2-10.2V81c0-5.6,4.6-10.2,10.2-10.2c76.4,0,152.8,0,229.2,0c5.6,0,10.2,4.6,10.2,10.2V192.7L331.3,192.7z
		 M71.7,31h52.2V20.4H71.7V31L71.7,31z M289.1,31h52.2V20.4h-52.2V31L289.1,31z M20.4,222.3h372.2v-171H20.4V222.3L20.4,222.3z"/>
</g>
</svg>
