<svg id="home_appliance" xmlns="http://www.w3.org/2000/svg" viewBox="0 0 112.6 128"><g id="washing_machine"><g id="icon"><path d="M64,112.6A33.3,33.3,0,1,0,30.7,79.4,33.3,33.3,0,0,0,64,112.6Zm0-61.4A28.2,28.2,0,1,1,35.8,79.4,28.2,28.2,0,0,1,64,51.2ZM54.8,87.8l-1.3-2.2L75.7,72.8,77,75ZM75.4,67.1l1.3,2.2L50.1,84.7l-1.3-2.2ZM48.6,12.8H23V28.2H48.6ZM46.1,25.6H25.6V15.4H46.1ZM7.7,0V128H120.3V0ZM112.6,120.3H15.4V38.4h97.3v81.9Zm0-87H15.4V7.7h97.3V33.3ZM96,28.2a9,9,0,1,0-9-9A9,9,0,0,0,96,28.2Z" transform="translate(-7.7)" /></g></g></svg>
