<?xml version="1.0" encoding="utf-8"?>
<!-- Generator: Adobe Illustrator 27.0.0, SVG Export Plug-In . SVG Version: 6.00 Build 0)  -->
<svg version="1.1" id="_x3C_Layer_x3E_" xmlns="http://www.w3.org/2000/svg" xmlns:xlink="http://www.w3.org/1999/xlink" x="0px"
	 y="0px" viewBox="0 0 739.4 1137.6" style="enable-background:new 0 0 739.4 1137.6;" xml:space="preserve">
<style type="text/css">
	.st0{fill:#FFFFFF;}
</style>
<g>
	<path class="st0" d="M384.1,955.5c4.3,0,7.7,3.5,7.7,7.7v28.5h336.1h10.4V29.8H29.8v257.4c2.4-0.9,5-1.4,7.7-1.4H79
		c2.7,0,5.3,0.6,7.7,1.4v-11.8V166.9V94.5c0-4.3,3.5-7.7,7.7-7.7h579.2c4.3,0,7.7,3.5,7.7,7.7v72.4v108.6v72.4v144.8V565v144.8v72.4
		v108.6c0,4.3-3.5,7.7-7.7,7.7H94.5c-4.3,0-7.7-3.5-7.7-7.7V782.2v-48c-2.4,0.9-5,1.4-7.7,1.4H37.6c-2.7,0-5.3-0.6-7.7-1.4v257.4
		h10.4h336.1v-28.5C376.3,958.9,379.8,955.5,384.1,955.5z"/>
	<path d="M7.7,277.5V7.7h724v977.3h-10.4c0,0,0,0,0,0v7.7h10.4c4.3,0,7.7-3.5,7.7-7.7V7.7c0-4.3-3.5-7.7-7.7-7.7H7.7
		C3.5,0,0,3.5,0,7.7v287C0,287.9,3,281.8,7.7,277.5z"/>
	<path d="M18.1,985.1H7.7V715.3C3,711,0,705,0,698.1v287c0,4.3,3.5,7.7,7.7,7.7h10.4V985.1C18.1,985.1,18.1,985.1,18.1,985.1z"/>
	<path d="M25.8,977.3H15.5V719.9c-2.9-1-5.5-2.6-7.7-4.6v269.8h10.4C18.1,980.8,21.6,977.3,25.8,977.3z"/>
	<path d="M15.5,15.5H724v961.9h-10.4c4.3,0,7.7,3.5,7.7,7.7h10.4V7.7H7.7v269.8c2.2-2,4.9-3.6,7.7-4.6V15.5z"/>
	<path d="M659.3,558.5L659.3,558.5l0,129.3h0c4.3,0,7.7,3.5,7.7,7.7V550.7C667.1,555,663.6,558.5,659.3,558.5z"/>
	<path d="M659.3,341.3L659.3,341.3l0,129.3h0c4.3,0,7.7,3.5,7.7,7.7V333.5C667.1,337.8,663.6,341.3,659.3,341.3z"/>
	<path d="M659.3,775.6L659.3,775.6l0,100.9H80.1V775.6l0,0c-4.3,0-7.7-3.5-7.7-7.7v108.6c0,4.3,3.5,7.7,7.7,7.7h579.2
		c4.3,0,7.7-3.5,7.7-7.7V767.9C667.1,772.2,663.6,775.6,659.3,775.6z"/>
	<path d="M80.1,253.4L80.1,253.4v-93.1l0,0c-4.3,0-7.7-3.5-7.7-7.7v108.6C72.4,256.9,75.9,253.4,80.1,253.4z"/>
	<path d="M659.3,160.3L659.3,160.3l0,93.1h0c4.3,0,7.7,3.5,7.7,7.7V152.5C667.1,156.8,663.6,160.3,659.3,160.3z"/>
	<polygon points="651.6,868.7 87.9,868.7 87.9,775.6 80.1,775.6 80.1,876.5 659.3,876.5 659.3,775.6 651.6,775.6 	"/>
	<rect x="651.6" y="558.5" width="7.7" height="129.3"/>
	<rect x="80.1" y="160.3" width="7.7" height="93.1"/>
	<rect x="651.6" y="341.3" width="7.7" height="129.3"/>
	<rect x="651.6" y="160.3" width="7.7" height="93.1"/>
	<path d="M25.8,1137.6h687.8c4.3,0,7.7-3.5,7.7-7.7v-137h-7.7v137H25.8v-137h-7.7v137C18.1,1134.2,21.6,1137.6,25.8,1137.6z"/>
	<polygon points="721.3,985.1 713.6,985.1 713.6,992.8 721.3,992.8 721.3,985.1 	"/>
	<polygon points="25.8,985.1 18.1,985.1 18.1,985.1 18.1,992.8 25.8,992.8 	"/>
	<path d="M362,977.3H25.8c-4.3,0-7.7,3.5-7.7,7.7h7.7H362V977.3z"/>
	<path d="M713.6,977.3H377.5v7.7h336.1h7.7C721.3,980.8,717.9,977.3,713.6,977.3z"/>
	<polygon points="705.9,1122.1 33.6,1122.1 33.6,992.8 25.8,992.8 25.8,1129.9 713.6,1129.9 713.6,992.8 705.9,992.8 	"/>
	<path d="M369.7,992.8c-4.3,0-7.7-3.5-7.7-7.7v0H25.8v7.7h7.7H369.7z"/>
	<path d="M377.5,985.1L377.5,985.1c0,4.3-3.5,7.7-7.7,7.7h336.1h7.7v-7.7H377.5z"/>
	<path d="M273.9,1065.2h15.5c4.3,0,7.7-3.5,7.7-7.7c0-4.3-3.5-7.7-7.7-7.7h-15.5c-4.3,0-7.7,3.5-7.7,7.7
		C266.1,1061.8,269.6,1065.2,273.9,1065.2z"/>
	<path d="M320.3,1065.2h15.5c4.3,0,7.7-3.5,7.7-7.7c0-4.3-3.5-7.7-7.7-7.7h-15.5c-4.3,0-7.7,3.5-7.7,7.7
		C312.6,1061.8,316,1065.2,320.3,1065.2z"/>
	<path d="M413.3,1065.2h15.5c4.3,0,7.7-3.5,7.7-7.7c0-4.3-3.5-7.7-7.7-7.7h-15.5c-4.3,0-7.7,3.5-7.7,7.7
		C405.5,1061.8,409,1065.2,413.3,1065.2z"/>
	<path d="M227.4,1065.2h15.5c4.3,0,7.7-3.5,7.7-7.7c0-4.3-3.5-7.7-7.7-7.7h-15.5c-4.3,0-7.7,3.5-7.7,7.7
		C219.6,1061.8,223.1,1065.2,227.4,1065.2z"/>
	<path d="M459.7,1065.2h15.5c4.3,0,7.7-3.5,7.7-7.7c0-4.3-3.5-7.7-7.7-7.7h-15.5c-4.3,0-7.7,3.5-7.7,7.7
		C452,1061.8,455.5,1065.2,459.7,1065.2z"/>
	<path d="M506.2,1065.2h15.5c4.3,0,7.7-3.5,7.7-7.7c0-4.3-3.5-7.7-7.7-7.7h-15.5c-4.3,0-7.7,3.5-7.7,7.7
		C498.5,1061.8,501.9,1065.2,506.2,1065.2z"/>
	<path d="M599.2,1065.2h5.8c4.3,0,7.7-3.5,7.7-7.7c0-4.3-3.5-7.7-7.7-7.7h-5.8c-4.3,0-7.7,3.5-7.7,7.7
		C591.4,1061.8,594.9,1065.2,599.2,1065.2z"/>
	<path d="M366.8,1065.2h15.5c4.3,0,7.7-3.5,7.7-7.7c0-4.3-3.5-7.7-7.7-7.7h-15.5c-4.3,0-7.7,3.5-7.7,7.7
		C359.1,1061.8,362.5,1065.2,366.8,1065.2z"/>
	<path d="M180.9,1065.2h15.5c4.3,0,7.7-3.5,7.7-7.7c0-4.3-3.5-7.7-7.7-7.7h-15.5c-4.3,0-7.7,3.5-7.7,7.7
		C173.2,1061.8,176.6,1065.2,180.9,1065.2z"/>
	<path d="M552.7,1065.2h15.5c4.3,0,7.7-3.5,7.7-7.7c0-4.3-3.5-7.7-7.7-7.7h-15.5c-4.3,0-7.7,3.5-7.7,7.7
		C544.9,1061.8,548.4,1065.2,552.7,1065.2z"/>
	<path d="M134.4,1065.2h15.5c4.3,0,7.7-3.5,7.7-7.7c0-4.3-3.5-7.7-7.7-7.7h-15.5c-4.3,0-7.7,3.5-7.7,7.7
		C126.7,1061.8,130.2,1065.2,134.4,1065.2z"/>
	<path d="M65.8,279.2c2.4,0,4.6,0.6,6.6,1.7v-8c-2.4-0.9-5-1.4-7.7-1.4H23.2c-2.7,0-5.3,0.6-7.7,1.4v8c2-1,4.2-1.7,6.6-1.7H65.8z"/>
	<path d="M64.6,721.3c2.7,0,5.3-0.6,7.7-1.4v-8c-2,1-4.2,1.7-6.6,1.7H22.1c-2.4,0-4.6-0.6-6.6-1.7v8c2.4,0.9,5,1.4,7.7,1.4H64.6z"/>
	<path d="M7.7,715.3v-16V293.6v-16C3,281.8,0,287.9,0,294.7v403.4C0,705,3,711,7.7,715.3z"/>
	<path d="M15.5,711.9c-4.6-2.4-7.7-7.1-7.7-12.7v16c2.2,2,4.9,3.6,7.7,4.6V711.9z"/>
	<path d="M15.5,280.9v-8c-2.9,1-5.5,2.6-7.7,4.6v16C7.7,288,10.9,283.3,15.5,280.9z"/>
	<rect x="80.1" y="558.5" width="7.7" height="129.3"/>
	<rect x="80.1" y="341.3" width="7.7" height="129.3"/>
	<path d="M65.8,713.6c2.4,0,4.6-0.6,6.6-1.7v-13.8c0,4.3-3.5,7.7-7.7,7.7H23.2c-4.3,0-7.7-3.5-7.7-7.7v13.8c2,1,4.2,1.7,6.6,1.7
		H65.8z"/>
	<path d="M23.2,287h41.4c4.3,0,7.7,3.5,7.7,7.7v-13.8c-2-1-4.2-1.7-6.6-1.7H22.1c-2.4,0-4.6,0.6-6.6,1.7v13.8
		C15.5,290.4,19,287,23.2,287z"/>
	<path d="M15.5,711.9v-13.8V294.7v-13.8c-4.6,2.4-7.7,7.1-7.7,12.7v405.7C7.7,704.8,10.9,709.5,15.5,711.9z"/>
	<path d="M80.1,687.8L80.1,687.8V558.5l0,0c-4.3,0-7.7-3.5-7.7-7.7v144.8C72.4,691.2,75.9,687.8,80.1,687.8z"/>
	<path d="M80.1,470.6L80.1,470.6V341.3l0,0c-4.3,0-7.7-3.5-7.7-7.7v144.8C72.4,474,75.9,470.6,80.1,470.6z"/>
	<rect x="87.9" y="152.5" width="563.7" height="7.7"/>
	<path d="M80.1,160.3L80.1,160.3v-7.7V80.1h579.2v72.4v7.7h0c4.3,0,7.7-3.5,7.7-7.7V80.1c0-4.3-3.5-7.7-7.7-7.7H80.1
		c-4.3,0-7.7,3.5-7.7,7.7v72.4C72.4,156.8,75.9,160.3,80.1,160.3z"/>
	<rect x="80.1" y="152.5" width="7.7" height="7.7"/>
	<rect x="651.6" y="152.5" width="7.7" height="7.7"/>
	<rect x="87.9" y="144.8" width="563.7" height="7.7"/>
	<polygon points="87.9,144.8 87.9,87.9 651.6,87.9 651.6,144.8 651.6,152.5 659.3,152.5 659.3,80.1 80.1,80.1 80.1,152.5 
		87.9,152.5 	"/>
	<path d="M443.1,261.1c1.4-2.7,2.8-5.3,4.5-7.7h-10.9c1.6,2.5,3.1,5.1,4.5,7.7H443.1z"/>
	<path d="M296.3,333.5c-1.4,2.7-2.8,5.3-4.5,7.7h10.9c-1.6-2.5-3.1-5.1-4.5-7.7H296.3z"/>
	<path d="M298.3,261.1c1.4-2.7,2.8-5.3,4.5-7.7h-10.9c1.6,2.5,3.1,5.1,4.5,7.7H298.3z"/>
	<path d="M441.1,333.5c-1.4,2.7-2.8,5.3-4.5,7.7h10.9c-1.6-2.5-3.1-5.1-4.5-7.7H441.1z"/>
	<path d="M158,341.3c-1.6-2.5-3.1-5.1-4.5-7.7H87.9v7.7H158z"/>
	<path d="M585.9,261.1h65.6v-7.7h-70.1C583.1,255.9,584.6,258.5,585.9,261.1z"/>
	<path d="M158,253.4H87.9v7.7h65.6C154.9,258.5,156.4,255.9,158,253.4z"/>
	<path d="M581.5,341.3h70.1v-7.7h-65.6C584.6,336.2,583.1,338.8,581.5,341.3z"/>
	<path d="M80.1,261.1v-7.7l0,0c-4.3,0-7.7,3.5-7.7,7.7v11.8c2.9,1,5.5,2.6,7.7,4.6V261.1z"/>
	<path d="M659.3,253.4L659.3,253.4l0,7.7v72.4v7.7h0c4.3,0,7.7-3.5,7.7-7.7v-72.4C667.1,256.9,663.6,253.4,659.3,253.4z"/>
	<rect x="80.1" y="253.4" width="7.7" height="7.7"/>
	<rect x="651.6" y="333.5" width="7.7" height="7.7"/>
	<rect x="651.6" y="253.4" width="7.7" height="7.7"/>
	<path d="M80.1,293.6v-16c-2.2-2-4.9-3.6-7.7-4.6v8C77,283.3,80.1,288,80.1,293.6z"/>
	<rect x="80.1" y="333.5" width="7.7" height="7.7"/>
	<path d="M80.1,341.3L80.1,341.3v-7.7v-40c0-5.5-3.2-10.3-7.7-12.7v13.8v38.8C72.4,337.8,75.9,341.3,80.1,341.3z"/>
	<path d="M443.1,261.1h-2c0.3,0.7,0.7,1.4,1,2.1C442.4,262.5,442.8,261.8,443.1,261.1z"/>
	<path d="M298.3,261.1h-2c0.3,0.7,0.7,1.4,1,2.1C297.6,262.5,298,261.8,298.3,261.1z"/>
	<path d="M296.3,333.5h2c-0.3-0.7-0.7-1.4-1-2.1C297,332.2,296.7,332.9,296.3,333.5z"/>
	<path d="M441.1,333.5h2c-0.3-0.7-0.7-1.4-1-2.1C441.8,332.2,441.5,332.9,441.1,333.5z"/>
	<path d="M153.5,261.1H87.9v7.7h62.2C151.1,266.2,152.2,263.6,153.5,261.1z"/>
	<path d="M150.1,325.8H87.9v7.7h65.6C152.2,331,151.1,328.4,150.1,325.8z"/>
	<path d="M589.3,268.9h62.2v-7.7h-65.6C587.2,263.6,588.3,266.2,589.3,268.9z"/>
	<path d="M585.9,333.5h65.6v-7.7h-62.2C588.3,328.4,587.2,331,585.9,333.5z"/>
	<path d="M87.9,294.7v-25.8v-7.7h-7.7v16.4C84.9,281.8,87.9,287.9,87.9,294.7z"/>
	<polygon points="651.6,268.9 651.6,325.8 651.6,333.5 659.3,333.5 659.3,261.1 651.6,261.1 	"/>
	<path d="M87.9,333.5v-7.7v-31.1c0-6.8-3-12.9-7.7-17.2v16v40H87.9z"/>
	<path d="M224.9,377.5c28,0,52.6-14.4,66.9-36.2h-9.5c-13.2,17.3-34,28.5-57.4,28.5c-23.4,0-44.2-11.2-57.4-28.5H158
		C172.3,363,197,377.5,224.9,377.5z"/>
	<path d="M224.9,224.9c23.4,0,44.2,11.2,57.4,28.5h9.5c-14.3-21.8-39-36.2-66.9-36.2c-28,0-52.6,14.4-66.9,36.2h9.5
		C180.7,236.1,201.5,224.9,224.9,224.9z"/>
	<path d="M291.5,325.8h3.4c-0.6-1.5-1.2-3-1.7-4.6C292.7,322.7,292.1,324.3,291.5,325.8z"/>
	<path d="M152.5,297.3c0-10.1,2.1-19.7,5.8-28.5h-8.3c-3.4,8.9-5.3,18.4-5.3,28.5c0,10,1.9,19.6,5.3,28.5h8.3
		C154.6,317,152.5,307.4,152.5,297.3z"/>
	<path d="M294.9,268.9h-3.4c0.6,1.5,1.2,3,1.7,4.6C293.7,271.9,294.3,270.4,294.9,268.9z"/>
	<path d="M162.3,333.5h-8.8c1.4,2.7,2.8,5.3,4.5,7.7h9.5C165.6,338.8,163.9,336.2,162.3,333.5z"/>
	<path d="M167.5,253.4H158c-1.6,2.5-3.1,5.1-4.5,7.7h8.8C163.9,258.4,165.6,255.9,167.5,253.4z"/>
	<path d="M287.6,333.5c-1.6,2.7-3.3,5.3-5.2,7.7h9.5c1.6-2.5,3.1-5.1,4.5-7.7H287.6z"/>
	<path d="M287.6,261.1h8.8c-1.4-2.7-2.8-5.3-4.5-7.7h-9.5C284.3,255.9,286,258.4,287.6,261.1z"/>
	<path d="M162.3,261.1h-8.8c-1.3,2.5-2.4,5.1-3.4,7.7h8.3C159.5,266.2,160.9,263.6,162.3,261.1z"/>
	<path d="M294.9,325.8h-3.4c-1.1,2.7-2.5,5.2-3.9,7.7h8.8c0.3-0.7,0.7-1.4,1-2.1C296.4,329.6,295.6,327.7,294.9,325.8z"/>
	<path d="M294.9,268.9c0.7-1.9,1.6-3.8,2.4-5.7c-0.3-0.7-0.6-1.4-1-2.1h-8.8c1.4,2.5,2.8,5.1,3.9,7.7H294.9z"/>
	<path d="M158.4,325.8h-8.3c1,2.7,2.1,5.2,3.4,7.7h8.8C160.8,331,159.5,328.5,158.4,325.8z"/>
	<path d="M224.9,362c-18.7,0-35.5-8-47.3-20.7h-10.2c13.2,17.3,34,28.5,57.4,28.5c23.4,0,44.2-11.2,57.4-28.5h-10.2
		C260.4,354,243.6,362,224.9,362z"/>
	<path d="M224.9,232.7c18.7,0,35.5,8,47.3,20.7h10.2c-13.2-17.3-34-28.5-57.4-28.5c-23.4,0-44.2,11.2-57.4,28.5h10.2
		C189.5,240.7,206.3,232.7,224.9,232.7z"/>
	<path d="M289.6,297.3c0,10.2-2.4,19.8-6.7,28.5h8.6c0.6-1.5,1.2-3,1.7-4.6C290.9,313.7,289.6,305.6,289.6,297.3z"/>
	<path d="M293.2,273.5c-0.5-1.5-1.1-3.1-1.7-4.6h-8.6c4.2,8.6,6.7,18.2,6.7,28.5C289.6,289,290.9,281,293.2,273.5z"/>
	<path d="M160.3,297.3c0-10.2,2.4-19.9,6.7-28.5h-8.6c-3.7,8.7-5.8,18.4-5.8,28.5c0,10.1,2.1,19.7,5.8,28.5h8.6
		C162.7,317.2,160.3,307.6,160.3,297.3z"/>
	<path d="M177.6,253.4h-10.2c-1.9,2.5-3.6,5-5.2,7.7h9.1C173.3,258.4,175.4,255.8,177.6,253.4z"/>
	<path d="M278.5,333.5c-1.9,2.8-4,5.3-6.3,7.7h10.2c1.9-2.5,3.6-5,5.2-7.7H278.5z"/>
	<path d="M171.4,333.5h-9.1c1.6,2.7,3.3,5.3,5.2,7.7h10.2C175.4,338.8,173.3,336.3,171.4,333.5z"/>
	<path d="M278.5,261.1h9.1c-1.6-2.7-3.3-5.3-5.2-7.7h-10.2C274.5,255.8,276.6,258.4,278.5,261.1z"/>
	<path d="M167,325.8h-8.6c1.1,2.7,2.5,5.2,3.9,7.7h9.1C169.7,331.1,168.3,328.5,167,325.8z"/>
	<path d="M282.9,325.8c-1.3,2.7-2.8,5.3-4.4,7.7h9.1c1.4-2.5,2.8-5.1,3.9-7.7H282.9z"/>
	<path d="M171.4,261.1h-9.1c-1.4,2.5-2.8,5.1-3.9,7.7h8.6C168.3,266.2,169.7,263.6,171.4,261.1z"/>
	<path d="M282.9,268.9h8.6c-1.1-2.7-2.5-5.2-3.9-7.7h-9.1C280.1,263.6,281.6,266.2,282.9,268.9z"/>
	<path d="M369.7,224.9c23.4,0,44.2,11.2,57.4,28.5h9.5c-14.3-21.8-39-36.2-66.9-36.2c-28,0-52.6,14.4-66.9,36.2h9.5
		C325.5,236.1,346.3,224.9,369.7,224.9z"/>
	<path d="M369.7,369.7c-23.4,0-44.2-11.2-57.4-28.5h-9.5c14.3,21.8,39,36.2,66.9,36.2c28,0,52.6-14.4,66.9-36.2h-9.5
		C413.9,358.5,393.2,369.7,369.7,369.7z"/>
	<path d="M439.7,268.9h-3.4c0.6,1.5,1.2,3,1.7,4.6C438.5,271.9,439.1,270.4,439.7,268.9z"/>
	<path d="M303.1,268.9h-3.4c0.6,1.5,1.2,3,1.7,4.6C302,271.9,302.5,270.4,303.1,268.9z"/>
	<path d="M436.3,325.8h3.4c-0.6-1.5-1.2-3-1.7-4.6C437.5,322.7,436.9,324.3,436.3,325.8z"/>
	<path d="M299.8,325.8h3.4c-0.6-1.5-1.2-3-1.7-4.6C300.9,322.8,300.3,324.3,299.8,325.8z"/>
	<path d="M432.4,261.1h8.8c-1.4-2.7-2.8-5.3-4.5-7.7h-9.5C429,255.9,430.8,258.4,432.4,261.1z"/>
	<path d="M307.1,333.5h-8.8c1.4,2.7,2.8,5.3,4.5,7.7h9.5C310.4,338.8,308.7,336.2,307.1,333.5z"/>
	<path d="M432.4,333.5c-1.6,2.7-3.3,5.3-5.2,7.7h9.5c1.6-2.5,3.1-5.1,4.5-7.7H432.4z"/>
	<path d="M307.1,261.1c1.6-2.7,3.3-5.3,5.2-7.7h-9.5c-1.6,2.5-3.1,5.1-4.5,7.7H307.1z"/>
	<path d="M299.8,268.9h3.4c1.1-2.7,2.5-5.2,3.9-7.7h-8.8c-0.3,0.7-0.7,1.4-1,2.1C298.2,265,299,266.9,299.8,268.9z"/>
	<path d="M439.7,325.8h-3.4c-1.1,2.7-2.5,5.2-3.9,7.7h8.8c0.3-0.7,0.7-1.4,1-2.1C441.2,329.6,440.4,327.7,439.7,325.8z"/>
	<path d="M299.8,325.8c-0.7,1.9-1.5,3.8-2.4,5.7c0.3,0.7,0.6,1.4,1,2.1h8.8c-1.4-2.5-2.8-5.1-3.9-7.7H299.8z"/>
	<path d="M439.7,268.9c0.7-1.9,1.6-3.8,2.4-5.7c-0.3-0.7-0.6-1.4-1-2.1h-8.8c1.4,2.5,2.8,5.1,3.9,7.7H439.7z"/>
	<path d="M297.3,297.3c0-8.4,1.5-16.4,4.1-23.9c-0.5-1.6-1.1-3.1-1.7-4.6h-4.9c-0.6,1.5-1.2,3-1.7,4.6
		C295.8,280.9,297.3,289,297.3,297.3z"/>
	<path d="M297.3,297.3c0,8.4-1.5,16.4-4.1,23.9c0.5,1.6,1.1,3.1,1.7,4.6h4.9c0.6-1.5,1.2-3,1.7-4.6
		C298.8,313.7,297.3,305.7,297.3,297.3z"/>
	<path d="M297.3,263.2c-0.9,1.9-1.7,3.8-2.4,5.7h4.9C299,266.9,298.2,265,297.3,263.2z"/>
	<path d="M297.3,331.5c0.9-1.9,1.7-3.8,2.4-5.7h-4.9C295.6,327.7,296.4,329.6,297.3,331.5z"/>
	<path d="M297.3,297.3c0-8.4-1.5-16.4-4.1-23.9c-2.4,7.5-3.6,15.6-3.6,23.9c0,8.3,1.3,16.3,3.6,23.9
		C295.8,313.7,297.3,305.7,297.3,297.3z"/>
	<path d="M369.7,362c-18.7,0-35.5-8-47.3-20.7h-10.2c13.2,17.3,34,28.5,57.4,28.5c23.4,0,44.2-11.2,57.4-28.5H417
		C405.2,354,388.4,362,369.7,362z"/>
	<path d="M369.7,232.7c18.7,0,35.5,8,47.3,20.7h10.2c-13.2-17.3-34-28.5-57.4-28.5c-23.4,0-44.2,11.2-57.4,28.5h10.2
		C334.3,240.7,351,232.7,369.7,232.7z"/>
	<path d="M434.4,297.3c0,10.2-2.4,19.8-6.7,28.5h8.6c0.6-1.5,1.2-3,1.7-4.6C435.6,313.7,434.4,305.6,434.4,297.3z"/>
	<path d="M438,273.5c-0.5-1.5-1.1-3.1-1.7-4.6h-8.6c4.2,8.6,6.7,18.2,6.7,28.5C434.4,289,435.6,281,438,273.5z"/>
	<path d="M305.1,297.3c0-10.2,2.4-19.9,6.7-28.5h-8.6c-0.6,1.5-1.2,3-1.7,4.6C303.8,281,305.1,289,305.1,297.3z"/>
	<path d="M301.4,321.2c0.5,1.5,1.1,3.1,1.7,4.6h8.6c-4.2-8.6-6.7-18.2-6.7-28.5C305.1,305.6,303.8,313.7,301.4,321.2z"/>
	<path d="M316.2,333.5h-9.1c1.6,2.7,3.3,5.3,5.2,7.7h10.2C320.2,338.8,318,336.3,316.2,333.5z"/>
	<path d="M322.4,253.4h-10.2c-1.9,2.5-3.6,5-5.2,7.7h9.1C318.1,258.4,320.2,255.8,322.4,253.4z"/>
	<path d="M423.3,261.1h9.1c-1.6-2.7-3.3-5.3-5.2-7.7H417C419.3,255.8,421.4,258.4,423.3,261.1z"/>
	<path d="M417,341.3h10.2c1.9-2.5,3.6-5,5.2-7.7h-9.1C421.4,336.3,419.3,338.8,417,341.3z"/>
	<path d="M311.8,325.8h-8.6c1.1,2.7,2.5,5.2,3.9,7.7h9.1C314.5,331.1,313.1,328.5,311.8,325.8z"/>
	<path d="M311.8,268.9c1.3-2.7,2.8-5.3,4.4-7.7h-9.1c-1.4,2.5-2.8,5.1-3.9,7.7H311.8z"/>
	<path d="M427.7,325.8c-1.3,2.7-2.8,5.3-4.4,7.7h9.1c1.4-2.5,2.8-5.1,3.9-7.7H427.7z"/>
	<path d="M427.7,268.9h8.6c-1.1-2.7-2.5-5.2-3.9-7.7h-9.1C424.9,263.6,426.4,266.2,427.7,268.9z"/>
	<path d="M305.1,297.3c0-8.3-1.3-16.3-3.6-23.9c-2.6,7.5-4.1,15.5-4.1,23.9c0,8.4,1.5,16.4,4.1,23.9
		C303.8,313.7,305.1,305.6,305.1,297.3z"/>
	<path d="M514.5,369.7c-23.4,0-44.2-11.2-57.4-28.5h-9.5c14.3,21.8,39,36.2,66.9,36.2c28,0,52.6-14.4,66.9-36.2H572
		C558.7,358.5,537.9,369.7,514.5,369.7z"/>
	<path d="M514.5,224.9c23.4,0,44.2,11.2,57.4,28.5h9.5c-14.3-21.8-39-36.2-66.9-36.2c-28,0-52.6,14.4-66.9,36.2h9.5
		C470.3,236.1,491.1,224.9,514.5,224.9z"/>
	<path d="M447.9,268.9h-3.4c0.6,1.5,1.2,3,1.7,4.6C446.8,271.9,447.3,270.4,447.9,268.9z"/>
	<path d="M444.5,325.8h3.4c-0.6-1.5-1.2-3-1.7-4.6C445.7,322.8,445.1,324.3,444.5,325.8z"/>
	<path d="M586.9,297.3c0,10.1-2.1,19.7-5.8,28.5h8.2c3.4-8.9,5.3-18.4,5.3-28.5c0-10-1.9-19.6-5.3-28.5h-8.2
		C584.8,277.6,586.9,287.2,586.9,297.3z"/>
	<path d="M451.9,261.1c1.6-2.7,3.3-5.3,5.2-7.7h-9.5c-1.6,2.5-3.1,5.1-4.5,7.7H451.9z"/>
	<path d="M577.1,261.1h8.8c-1.4-2.7-2.8-5.3-4.5-7.7H572C573.8,255.9,575.6,258.4,577.1,261.1z"/>
	<path d="M572,341.3h9.5c1.6-2.5,3.1-5.1,4.5-7.7h-8.8C575.6,336.2,573.8,338.8,572,341.3z"/>
	<path d="M451.9,333.5h-8.8c1.4,2.7,2.8,5.3,4.5,7.7h9.5C455.2,338.8,453.4,336.2,451.9,333.5z"/>
	<path d="M444.5,268.9h3.4c1.1-2.7,2.5-5.2,3.9-7.7h-8.8c-0.3,0.7-0.7,1.4-1,2.1C443,265,443.8,266.9,444.5,268.9z"/>
	<path d="M577.1,333.5h8.8c1.3-2.5,2.4-5.1,3.4-7.7h-8.2C579.9,328.5,578.6,331,577.1,333.5z"/>
	<path d="M581.1,268.9h8.2c-1-2.7-2.1-5.2-3.4-7.7h-8.8C578.6,263.6,579.9,266.2,581.1,268.9z"/>
	<path d="M444.5,325.8c-0.7,1.9-1.6,3.8-2.4,5.7c0.3,0.7,0.6,1.4,1,2.1h8.8c-1.4-2.5-2.8-5.1-3.9-7.7H444.5z"/>
	<path d="M442.1,297.3c0,8.4-1.5,16.4-4.1,23.9c0.5,1.6,1.1,3.1,1.7,4.6h4.9c0.6-1.5,1.2-3,1.7-4.6
		C443.6,313.7,442.1,305.7,442.1,297.3z"/>
	<path d="M442.1,297.3c0-8.4,1.5-16.4,4.1-23.9c-0.5-1.6-1.1-3.1-1.7-4.6h-4.9c-0.6,1.5-1.2,3-1.7,4.6
		C440.6,280.9,442.1,289,442.1,297.3z"/>
	<path d="M442.1,331.5c0.9-1.9,1.7-3.8,2.4-5.7h-4.9C440.4,327.7,441.2,329.6,442.1,331.5z"/>
	<path d="M442.1,263.2c-0.9,1.9-1.7,3.8-2.4,5.7h4.9C443.8,266.9,443,265,442.1,263.2z"/>
	<path d="M442.1,297.3c0-8.4-1.5-16.4-4.1-23.9c-2.4,7.5-3.6,15.6-3.6,23.9c0,8.3,1.3,16.3,3.6,23.9
		C440.6,313.7,442.1,305.7,442.1,297.3z"/>
	<path d="M514.5,362c-18.7,0-35.5-8-47.3-20.7h-10.1c13.2,17.3,34,28.5,57.4,28.5c23.4,0,44.2-11.2,57.4-28.5h-10.2
		C550,354,533.2,362,514.5,362z"/>
	<path d="M514.5,232.7c18.7,0,35.5,8,47.3,20.7H572c-13.2-17.3-34-28.5-57.4-28.5c-23.4,0-44.2,11.2-57.4,28.5h10.2
		C479,240.7,495.8,232.7,514.5,232.7z"/>
	<path d="M449.9,297.3c0-10.2,2.4-19.9,6.7-28.5h-8.6c-0.6,1.5-1.2,3-1.7,4.6C448.6,281,449.9,289,449.9,297.3z"/>
	<path d="M446.2,321.2c0.5,1.5,1.1,3.1,1.7,4.6h8.6c-4.2-8.6-6.7-18.2-6.7-28.5C449.9,305.6,448.6,313.7,446.2,321.2z"/>
	<path d="M579.2,297.3c0,10.2-2.4,19.8-6.7,28.5h8.6c3.7-8.7,5.8-18.3,5.8-28.5c0-10.1-2.1-19.7-5.8-28.5h-8.6
		C576.7,277.5,579.2,287.1,579.2,297.3z"/>
	<path d="M568,261.1h9.1c-1.6-2.7-3.3-5.3-5.2-7.7h-10.2C564,255.8,566.2,258.4,568,261.1z"/>
	<path d="M467.2,253.4h-10.2c-1.9,2.5-3.6,5-5.2,7.7h9.1C462.8,258.4,465,255.8,467.2,253.4z"/>
	<path d="M461,333.5h-9.1c1.6,2.7,3.3,5.3,5.2,7.7h10.1C465,338.8,462.8,336.3,461,333.5z"/>
	<path d="M561.8,341.3H572c1.9-2.5,3.6-5,5.2-7.7H568C566.2,336.3,564.1,338.8,561.8,341.3z"/>
	<path d="M456.5,268.9c1.3-2.7,2.8-5.3,4.4-7.7h-9.1c-1.4,2.5-2.8,5.1-3.9,7.7H456.5z"/>
	<path d="M568,333.5h9.1c1.4-2.5,2.8-5.1,3.9-7.7h-8.6C571.2,328.5,569.7,331.1,568,333.5z"/>
	<path d="M456.5,325.8h-8.6c1.1,2.7,2.5,5.2,3.9,7.7h9.1C459.3,331.1,457.9,328.5,456.5,325.8z"/>
	<path d="M572.5,268.9h8.6c-1.1-2.7-2.5-5.2-3.9-7.7H568C569.7,263.6,571.2,266.2,572.5,268.9z"/>
	<path d="M449.9,297.3c0-8.3-1.3-16.3-3.6-23.9c-2.6,7.5-4.1,15.5-4.1,23.9c0,8.4,1.5,16.4,4.1,23.9
		C448.6,313.7,449.9,305.6,449.9,297.3z"/>
	<path d="M298.3,478.3c1.4-2.7,2.8-5.3,4.5-7.7h-10.9c1.6,2.5,3.1,5.1,4.5,7.7H298.3z"/>
	<path d="M585.9,478.3h65.6v-7.7h-70.1C583.1,473.1,584.6,475.7,585.9,478.3z"/>
	<path d="M581.5,558.5h70.1v-7.7h-65.6C584.6,553.4,583.1,556,581.5,558.5z"/>
	<path d="M158,470.6H87.9v7.7h65.6C154.9,475.7,156.4,473.1,158,470.6z"/>
	<path d="M153.5,550.7H87.9v7.7H158C156.3,556,154.9,553.4,153.5,550.7z"/>
	<path d="M443.1,478.3c1.4-2.7,2.8-5.3,4.5-7.7h-10.9c1.6,2.5,3.1,5.1,4.5,7.7H443.1z"/>
	<path d="M441.1,550.7c-1.4,2.7-2.8,5.3-4.5,7.7h10.9c-1.6-2.5-3.1-5.1-4.5-7.7H441.1z"/>
	<path d="M296.3,550.7c-1.4,2.7-2.8,5.3-4.5,7.7h10.9c-1.6-2.5-3.1-5.1-4.5-7.7H296.3z"/>
	<path d="M659.3,470.6L659.3,470.6l0,7.7v72.4v7.7h0c4.3,0,7.7-3.5,7.7-7.7v-72.4C667.1,474,663.6,470.6,659.3,470.6z"/>
	<rect x="651.6" y="550.7" width="7.7" height="7.7"/>
	<rect x="651.6" y="470.6" width="7.7" height="7.7"/>
	<rect x="80.1" y="470.6" width="7.7" height="7.7"/>
	<rect x="80.1" y="550.7" width="7.7" height="7.7"/>
	<path d="M80.1,558.5L80.1,558.5v-7.7v-72.4v-7.7l0,0c-4.3,0-7.7,3.5-7.7,7.7v72.4C72.4,555,75.9,558.5,80.1,558.5z"/>
	<path d="M298.3,478.3h-2c0.3,0.7,0.7,1.4,1,2.1C297.6,479.7,298,479,298.3,478.3z"/>
	<path d="M443.1,478.3h-2c0.3,0.7,0.7,1.4,1,2.1C442.4,479.7,442.8,479,443.1,478.3z"/>
	<path d="M589.3,486.1h62.2v-7.7h-65.6C587.2,480.8,588.3,483.4,589.3,486.1z"/>
	<path d="M585.9,550.7h65.6V543h-62.2C588.3,545.6,587.2,548.2,585.9,550.7z"/>
	<path d="M441.1,550.7h2c-0.3-0.7-0.7-1.4-1-2.1C441.8,549.3,441.5,550,441.1,550.7z"/>
	<path d="M153.5,478.3H87.9v7.7h62.2C151.1,483.4,152.2,480.8,153.5,478.3z"/>
	<path d="M150.1,543H87.9v7.7h65.6C152.2,548.2,151.1,545.6,150.1,543z"/>
	<path d="M296.3,550.7h2c-0.3-0.7-0.7-1.4-1-2.1C297,549.3,296.7,550,296.3,550.7z"/>
	<polygon points="651.6,486.1 651.6,543 651.6,550.7 659.3,550.7 659.3,478.3 651.6,478.3 	"/>
	<polygon points="87.9,543 87.9,486.1 87.9,478.3 80.1,478.3 80.1,550.7 87.9,550.7 	"/>
	<path d="M224.9,442.1c23.4,0,44.2,11.2,57.4,28.5h9.5c-14.3-21.8-39-36.2-66.9-36.2c-28,0-52.6,14.4-66.9,36.2h9.5
		C180.7,453.3,201.5,442.1,224.9,442.1z"/>
	<path d="M224.9,586.9c-23.4,0-44.2-11.2-57.4-28.5H158c14.3,21.8,39,36.2,66.9,36.2c28,0,52.6-14.4,66.9-36.2h-9.5
		C269.1,575.7,248.4,586.9,224.9,586.9z"/>
	<path d="M291.5,543h3.4c-0.6-1.5-1.2-3-1.7-4.6C292.7,539.9,292.1,541.5,291.5,543z"/>
	<path d="M294.9,486.1h-3.4c0.6,1.5,1.2,3,1.7,4.6C293.7,489.1,294.3,487.6,294.9,486.1z"/>
	<path d="M152.5,514.5c0-10.1,2.1-19.7,5.8-28.5h-8.3c-3.4,8.9-5.3,18.4-5.3,28.5c0,10,1.9,19.6,5.3,28.4h8.3
		C154.6,534.2,152.5,524.6,152.5,514.5z"/>
	<path d="M162.3,478.3c1.6-2.7,3.3-5.3,5.2-7.7H158c-1.6,2.5-3.1,5.1-4.5,7.7H162.3z"/>
	<path d="M162.3,550.7h-8.8c1.4,2.7,2.8,5.3,4.5,7.7h9.5C165.6,556,163.9,553.4,162.3,550.7z"/>
	<path d="M287.6,550.7c-1.6,2.7-3.3,5.3-5.2,7.7h9.5c1.6-2.5,3.1-5.1,4.5-7.7H287.6z"/>
	<path d="M287.6,478.3h8.8c-1.4-2.7-2.8-5.3-4.5-7.7h-9.5C284.3,473,286,475.6,287.6,478.3z"/>
	<path d="M294.9,486.1c0.7-1.9,1.6-3.8,2.4-5.7c-0.3-0.7-0.6-1.4-1-2.1h-8.8c1.4,2.5,2.8,5.1,3.9,7.7H294.9z"/>
	<path d="M158.4,543h-8.3c1,2.7,2.1,5.2,3.4,7.7h8.8C160.8,548.2,159.5,545.6,158.4,543z"/>
	<path d="M294.9,543h-3.4c-1.1,2.7-2.5,5.2-3.9,7.7h8.8c0.3-0.7,0.7-1.4,1-2.1C296.4,546.8,295.6,544.9,294.9,543z"/>
	<path d="M162.3,478.3h-8.8c-1.3,2.5-2.4,5.1-3.4,7.7h8.3C159.5,483.4,160.9,480.8,162.3,478.3z"/>
	<path d="M224.9,449.9c18.7,0,35.5,8,47.3,20.7h10.2c-13.2-17.3-34-28.5-57.4-28.5c-23.4,0-44.2,11.2-57.4,28.5h10.2
		C189.5,457.9,206.3,449.9,224.9,449.9z"/>
	<path d="M224.9,579.2c-18.7,0-35.5-8-47.3-20.7h-10.2c13.2,17.3,34,28.5,57.4,28.5c23.4,0,44.2-11.2,57.4-28.5h-10.2
		C260.4,571.2,243.6,579.2,224.9,579.2z"/>
	<path d="M293.2,490.6c-0.5-1.5-1.1-3.1-1.7-4.6h-8.6c4.2,8.6,6.7,18.2,6.7,28.5C289.6,506.2,290.9,498.2,293.2,490.6z"/>
	<path d="M289.6,514.5c0,10.2-2.4,19.9-6.7,28.4h8.6c0.6-1.5,1.2-3,1.7-4.6C290.9,530.8,289.6,522.8,289.6,514.5z"/>
	<path d="M160.3,514.5c0-10.2,2.4-19.9,6.7-28.5h-8.6c-3.7,8.7-5.8,18.4-5.8,28.5c0,10.1,2.1,19.7,5.8,28.4h8.6
		C162.7,534.4,160.3,524.7,160.3,514.5z"/>
	<path d="M177.6,470.6h-10.2c-1.9,2.5-3.6,5-5.2,7.7h9.1C173.3,475.6,175.4,473,177.6,470.6z"/>
	<path d="M171.4,550.7h-9.1c1.6,2.7,3.3,5.3,5.2,7.7h10.2C175.4,556,173.3,553.5,171.4,550.7z"/>
	<path d="M278.5,478.3h9.1c-1.6-2.7-3.3-5.3-5.2-7.7h-10.2C274.5,473,276.6,475.6,278.5,478.3z"/>
	<path d="M272.2,558.5h10.2c1.9-2.5,3.6-5,5.2-7.7h-9.1C276.6,553.5,274.5,556,272.2,558.5z"/>
	<path d="M167,486.1c1.3-2.7,2.8-5.3,4.4-7.7h-9.1c-1.4,2.5-2.8,5.1-3.9,7.7H167z"/>
	<path d="M282.9,543c-1.3,2.7-2.8,5.3-4.4,7.7h9.1c1.4-2.5,2.8-5.1,3.9-7.7H282.9z"/>
	<path d="M282.9,486.1h8.6c-1.1-2.7-2.5-5.2-3.9-7.7h-9.1C280.1,480.8,281.6,483.4,282.9,486.1z"/>
	<path d="M167,543h-8.6c1.1,2.7,2.5,5.2,3.9,7.7h9.1C169.7,548.3,168.3,545.6,167,543z"/>
	<path d="M369.7,442.1c23.4,0,44.2,11.2,57.4,28.5h9.5c-14.3-21.8-39-36.2-66.9-36.2c-28,0-52.6,14.4-66.9,36.2h9.5
		C325.5,453.3,346.3,442.1,369.7,442.1z"/>
	<path d="M369.7,586.9c-23.4,0-44.2-11.2-57.4-28.5h-9.5c14.3,21.8,39,36.2,66.9,36.2c28,0,52.6-14.4,66.9-36.2h-9.5
		C413.9,575.7,393.2,586.9,369.7,586.9z"/>
	<path d="M303.1,486.1h-3.4c0.6,1.5,1.2,3,1.7,4.6C302,489.1,302.5,487.6,303.1,486.1z"/>
	<path d="M439.7,486.1h-3.4c0.6,1.5,1.2,3,1.7,4.6C438.5,489.1,439.1,487.6,439.7,486.1z"/>
	<path d="M299.8,543h3.4c-0.6-1.5-1.2-3-1.7-4.6C300.9,539.9,300.3,541.4,299.8,543z"/>
	<path d="M436.3,543h3.4c-0.6-1.5-1.2-3-1.7-4.6C437.5,539.9,436.9,541.5,436.3,543z"/>
	<path d="M307.1,478.3c1.6-2.7,3.3-5.3,5.2-7.7h-9.5c-1.6,2.5-3.1,5.1-4.5,7.7H307.1z"/>
	<path d="M432.4,550.7c-1.6,2.7-3.3,5.3-5.2,7.7h9.5c1.6-2.5,3.1-5.1,4.5-7.7H432.4z"/>
	<path d="M432.4,478.3h8.8c-1.4-2.7-2.8-5.3-4.5-7.7h-9.5C429,473,430.8,475.6,432.4,478.3z"/>
	<path d="M307.1,550.7h-8.8c1.4,2.7,2.8,5.3,4.5,7.7h9.5C310.4,556,308.7,553.4,307.1,550.7z"/>
	<path d="M299.8,543c-0.7,1.9-1.6,3.8-2.4,5.7c0.3,0.7,0.6,1.4,1,2.1h8.8c-1.4-2.5-2.8-5.1-3.9-7.7H299.8z"/>
	<path d="M439.7,543h-3.4c-1.1,2.7-2.5,5.2-3.9,7.7h8.8c0.3-0.7,0.7-1.4,1-2.1C441.2,546.8,440.4,544.9,439.7,543z"/>
	<path d="M439.7,486.1c0.7-1.9,1.6-3.8,2.4-5.7c-0.3-0.7-0.6-1.4-1-2.1h-8.8c1.4,2.5,2.8,5.1,3.9,7.7H439.7z"/>
	<path d="M299.8,486.1h3.4c1.1-2.7,2.5-5.2,3.9-7.7h-8.8c-0.3,0.7-0.7,1.4-1,2.1C298.2,482.2,299,484.1,299.8,486.1z"/>
	<path d="M297.3,514.5c0,8.4-1.5,16.4-4.1,23.9c0.5,1.6,1.1,3.1,1.7,4.6h4.9c0.6-1.5,1.2-3,1.7-4.6
		C298.8,530.9,297.3,522.9,297.3,514.5z"/>
	<path d="M297.3,514.5c0-8.4,1.5-16.4,4.1-23.9c-0.5-1.6-1.1-3.1-1.7-4.6h-4.9c-0.6,1.5-1.2,3-1.7,4.6
		C295.8,498.1,297.3,506.1,297.3,514.5z"/>
	<path d="M297.3,480.4c-0.9,1.9-1.7,3.8-2.4,5.7h4.9C299,484.1,298.2,482.2,297.3,480.4z"/>
	<path d="M297.3,548.7c0.9-1.9,1.7-3.8,2.4-5.7h-4.9C295.6,544.9,296.4,546.8,297.3,548.7z"/>
	<path d="M297.3,514.5c0-8.4-1.5-16.4-4.1-23.9c-2.4,7.5-3.6,15.6-3.6,23.9c0,8.3,1.3,16.3,3.6,23.9
		C295.8,530.9,297.3,522.9,297.3,514.5z"/>
	<path d="M369.7,449.9c18.7,0,35.5,8,47.3,20.7h10.2c-13.2-17.3-34-28.5-57.4-28.5c-23.4,0-44.2,11.2-57.4,28.5h10.2
		C334.3,457.9,351,449.9,369.7,449.9z"/>
	<path d="M369.7,579.2c-18.7,0-35.5-8-47.3-20.7h-10.2c13.2,17.3,34,28.5,57.4,28.5c23.4,0,44.2-11.2,57.4-28.5H417
		C405.2,571.2,388.4,579.2,369.7,579.2z"/>
	<path d="M305.1,514.5c0-10.2,2.4-19.9,6.7-28.5h-8.6c-0.6,1.5-1.2,3-1.7,4.6C303.8,498.2,305.1,506.2,305.1,514.5z"/>
	<path d="M301.4,538.4c0.5,1.5,1.1,3.1,1.7,4.6h8.6c-4.2-8.6-6.7-18.2-6.7-28.4C305.1,522.8,303.8,530.8,301.4,538.4z"/>
	<path d="M438,490.6c-0.5-1.5-1.1-3.1-1.7-4.6h-8.6c4.2,8.6,6.7,18.2,6.7,28.5C434.4,506.2,435.6,498.2,438,490.6z"/>
	<path d="M434.4,514.5c0,10.2-2.4,19.9-6.7,28.4h8.6c0.6-1.5,1.2-3,1.7-4.6C435.6,530.8,434.4,522.8,434.4,514.5z"/>
	<path d="M322.4,470.6h-10.2c-1.9,2.5-3.6,5-5.2,7.7h9.1C318.1,475.6,320.2,473,322.4,470.6z"/>
	<path d="M423.3,478.3h9.1c-1.6-2.7-3.3-5.3-5.2-7.7H417C419.3,473,421.4,475.6,423.3,478.3z"/>
	<path d="M316.2,550.7h-9.1c1.6,2.7,3.3,5.3,5.2,7.7h10.2C320.2,556,318.1,553.5,316.2,550.7z"/>
	<path d="M417,558.5h10.2c1.9-2.5,3.6-5,5.2-7.7h-9.1C421.4,553.5,419.3,556,417,558.5z"/>
	<path d="M311.8,486.1c1.3-2.7,2.8-5.3,4.4-7.7h-9.1c-1.4,2.5-2.8,5.1-3.9,7.7H311.8z"/>
	<path d="M311.8,543h-8.6c1.1,2.7,2.5,5.2,3.9,7.7h9.1C314.5,548.3,313.1,545.6,311.8,543z"/>
	<path d="M427.7,543c-1.3,2.7-2.8,5.3-4.4,7.7h9.1c1.4-2.5,2.8-5.1,3.9-7.7H427.7z"/>
	<path d="M427.7,486.1h8.6c-1.1-2.7-2.5-5.2-3.9-7.7h-9.1C424.9,480.8,426.4,483.4,427.7,486.1z"/>
	<path d="M305.1,514.5c0-8.3-1.3-16.3-3.6-23.9c-2.6,7.5-4.1,15.5-4.1,23.9c0,8.4,1.5,16.4,4.1,23.9
		C303.8,530.8,305.1,522.8,305.1,514.5z"/>
	<path d="M514.5,442.1c23.4,0,44.2,11.2,57.4,28.5h9.5c-14.3-21.8-39-36.2-66.9-36.2c-28,0-52.6,14.4-66.9,36.2h9.5
		C470.3,453.3,491.1,442.1,514.5,442.1z"/>
	<path d="M514.5,586.9c-23.4,0-44.2-11.2-57.4-28.5h-9.5c14.3,21.8,39,36.2,66.9,36.2c28,0,52.6-14.4,66.9-36.2H572
		C558.7,575.7,537.9,586.9,514.5,586.9z"/>
	<path d="M447.9,486.1h-3.4c0.6,1.5,1.2,3,1.7,4.6C446.8,489.1,447.3,487.6,447.9,486.1z"/>
	<path d="M586.9,514.5c0,10.1-2.1,19.7-5.8,28.4h8.2c3.4-8.9,5.3-18.4,5.3-28.4c0-10-1.9-19.6-5.3-28.5h-8.2
		C584.8,494.8,586.9,504.4,586.9,514.5z"/>
	<path d="M444.5,543h3.4c-0.6-1.5-1.2-3-1.7-4.6C445.7,539.9,445.1,541.4,444.5,543z"/>
	<path d="M577.1,478.3h8.8c-1.4-2.7-2.8-5.3-4.5-7.7H572C573.8,473,575.6,475.6,577.1,478.3z"/>
	<path d="M572,558.5h9.5c1.6-2.5,3.1-5.1,4.5-7.7h-8.8C575.6,553.4,573.8,556,572,558.5z"/>
	<path d="M451.9,550.7h-8.8c1.4,2.7,2.8,5.3,4.5,7.7h9.5C455.2,556,453.4,553.4,451.9,550.7z"/>
	<path d="M451.9,478.3c1.6-2.7,3.3-5.3,5.2-7.7h-9.5c-1.6,2.5-3.1,5.1-4.5,7.7H451.9z"/>
	<path d="M444.5,486.1h3.4c1.1-2.7,2.5-5.2,3.9-7.7h-8.8c-0.3,0.7-0.7,1.4-1,2.1C443,482.2,443.8,484.1,444.5,486.1z"/>
	<path d="M444.5,543c-0.7,1.9-1.6,3.8-2.4,5.7c0.3,0.7,0.6,1.4,1,2.1h8.8c-1.4-2.5-2.8-5.1-3.9-7.7H444.5z"/>
	<path d="M577.1,550.7h8.8c1.3-2.5,2.4-5.1,3.4-7.7h-8.2C579.9,545.6,578.6,548.2,577.1,550.7z"/>
	<path d="M581.1,486.1h8.2c-1-2.7-2.1-5.2-3.4-7.7h-8.8C578.6,480.8,579.9,483.4,581.1,486.1z"/>
	<path d="M442.1,514.5c0-8.4,1.5-16.4,4.1-23.9c-0.5-1.6-1.1-3.1-1.7-4.6h-4.9c-0.6,1.5-1.2,3-1.7,4.6
		C440.6,498.1,442.1,506.1,442.1,514.5z"/>
	<path d="M442.1,514.5c0,8.4-1.5,16.4-4.1,23.9c0.5,1.6,1.1,3.1,1.7,4.6h4.9c0.6-1.5,1.2-3,1.7-4.6
		C443.6,530.9,442.1,522.9,442.1,514.5z"/>
	<path d="M442.1,480.4c-0.9,1.9-1.7,3.8-2.4,5.7h4.9C443.8,484.1,443,482.2,442.1,480.4z"/>
	<path d="M442.1,548.7c0.9-1.9,1.7-3.8,2.4-5.7h-4.9C440.4,544.9,441.2,546.8,442.1,548.7z"/>
	<path d="M442.1,514.5c0-8.4-1.5-16.4-4.1-23.9c-2.4,7.5-3.6,15.6-3.6,23.9c0,8.3,1.3,16.3,3.6,23.9
		C440.6,530.9,442.1,522.9,442.1,514.5z"/>
	<path d="M514.5,579.2c-18.7,0-35.5-8-47.3-20.7h-10.1c13.2,17.3,34,28.5,57.4,28.5c23.4,0,44.2-11.2,57.4-28.5h-10.2
		C550,571.2,533.2,579.2,514.5,579.2z"/>
	<path d="M514.5,449.9c18.7,0,35.5,8,47.3,20.7H572c-13.2-17.3-34-28.5-57.4-28.5c-23.4,0-44.2,11.2-57.4,28.5h10.2
		C479,457.9,495.8,449.9,514.5,449.9z"/>
	<path d="M579.2,514.5c0,10.2-2.4,19.9-6.7,28.4h8.6c3.7-8.7,5.8-18.3,5.8-28.4c0-10.1-2.1-19.7-5.8-28.5h-8.6
		C576.7,494.7,579.2,504.3,579.2,514.5z"/>
	<path d="M446.2,538.4c0.5,1.5,1.1,3.1,1.7,4.6h8.6c-4.2-8.6-6.7-18.2-6.7-28.4C449.9,522.8,448.6,530.8,446.2,538.4z"/>
	<path d="M449.9,514.5c0-10.2,2.4-19.9,6.7-28.5h-8.6c-0.6,1.5-1.2,3-1.7,4.6C448.6,498.2,449.9,506.2,449.9,514.5z"/>
	<path d="M568,478.3h9.1c-1.6-2.7-3.3-5.3-5.2-7.7h-10.2C564.1,473,566.2,475.6,568,478.3z"/>
	<path d="M561.8,558.5H572c1.9-2.5,3.6-5,5.2-7.7H568C566.2,553.5,564.1,556,561.8,558.5z"/>
	<path d="M461,550.7h-9.1c1.6,2.7,3.3,5.3,5.2,7.7h10.1C465,556,462.8,553.5,461,550.7z"/>
	<path d="M467.2,470.6h-10.2c-1.9,2.5-3.6,5-5.2,7.7h9.1C462.8,475.6,465,473,467.2,470.6z"/>
	<path d="M456.5,486.1c1.3-2.7,2.8-5.3,4.4-7.7h-9.1c-1.4,2.5-2.8,5.1-3.9,7.7H456.5z"/>
	<path d="M456.5,543h-8.6c1.1,2.7,2.5,5.2,3.9,7.7h9.1C459.3,548.3,457.9,545.6,456.5,543z"/>
	<path d="M568,550.7h9.1c1.4-2.5,2.8-5.1,3.9-7.7h-8.6C571.2,545.6,569.7,548.3,568,550.7z"/>
	<path d="M572.5,486.1h8.6c-1.1-2.7-2.5-5.2-3.9-7.7H568C569.7,480.8,571.2,483.4,572.5,486.1z"/>
	<path d="M449.9,514.5c0-8.3-1.3-16.3-3.6-23.9c-2.6,7.5-4.1,15.5-4.1,23.9c0,8.4,1.5,16.4,4.1,23.9
		C448.6,530.8,449.9,522.8,449.9,514.5z"/>
	<path d="M296.3,767.9c-1.4,2.7-2.8,5.3-4.5,7.7h10.9c-1.6-2.5-3.1-5.1-4.5-7.7H296.3z"/>
	<path d="M585.9,695.5h65.6v-7.7h-70.1C583.1,690.2,584.6,692.8,585.9,695.5z"/>
	<path d="M443.1,695.5c1.4-2.7,2.8-5.3,4.5-7.7h-10.9c1.6,2.5,3.1,5.1,4.5,7.7H443.1z"/>
	<path d="M298.3,695.5c1.4-2.7,2.8-5.3,4.5-7.7h-10.9c1.6,2.5,3.1,5.1,4.5,7.7H298.3z"/>
	<path d="M441.1,767.9c-1.4,2.7-2.8,5.3-4.5,7.7h10.9c-1.6-2.5-3.1-5.1-4.5-7.7H441.1z"/>
	<path d="M158,687.8H87.9v7.7h65.6C154.9,692.8,156.4,690.2,158,687.8z"/>
	<path d="M153.5,767.9H87.9v7.7H158C156.3,773.2,154.9,770.6,153.5,767.9z"/>
	<path d="M581.5,775.6h70.1v-7.7h-65.6C584.6,770.6,583.1,773.2,581.5,775.6z"/>
	<path d="M659.3,687.8L659.3,687.8l0,7.7v72.4v7.7h0c4.3,0,7.7-3.5,7.7-7.7v-72.4C667.1,691.2,663.6,687.8,659.3,687.8z"/>
	<path d="M80.1,775.6L80.1,775.6v-7.7v-52.6c-2.2,2-4.9,3.6-7.7,4.6v48C72.4,772.2,75.9,775.6,80.1,775.6z"/>
	<rect x="80.1" y="767.9" width="7.7" height="7.7"/>
	<rect x="651.6" y="767.9" width="7.7" height="7.7"/>
	<rect x="651.6" y="687.8" width="7.7" height="7.7"/>
	<path d="M80.1,699.3c0,5.5-3.2,10.3-7.7,12.7v8c2.9-1,5.5-2.6,7.7-4.6V699.3z"/>
	<rect x="80.1" y="687.8" width="7.7" height="7.7"/>
	<path d="M80.1,699.3v-3.8v-7.7l0,0c-4.3,0-7.7,3.5-7.7,7.7v2.6v13.8C77,709.5,80.1,704.8,80.1,699.3z"/>
	<path d="M585.9,767.9h65.6v-7.7h-62.2C588.3,762.8,587.2,765.4,585.9,767.9z"/>
	<path d="M296.3,767.9h2c-0.3-0.7-0.7-1.4-1-2.1C297,766.5,296.7,767.2,296.3,767.9z"/>
	<path d="M298.3,695.5h-2c0.3,0.7,0.7,1.4,1,2.1C297.6,696.9,298,696.2,298.3,695.5z"/>
	<path d="M150.1,760.2H87.9v7.7h65.6C152.2,765.4,151.1,762.8,150.1,760.2z"/>
	<path d="M153.5,695.5H87.9v2.6v5.1h62.2C151.1,700.6,152.2,698,153.5,695.5z"/>
	<path d="M443.1,695.5h-2c0.3,0.7,0.7,1.4,1,2.1C442.4,696.9,442.8,696.2,443.1,695.5z"/>
	<path d="M589.3,703.2h62.2v-7.7h-65.6C587.2,698,588.3,700.6,589.3,703.2z"/>
	<path d="M441.1,767.9h2c-0.3-0.7-0.7-1.4-1-2.1C441.8,766.5,441.5,767.2,441.1,767.9z"/>
	<polygon points="651.6,703.2 651.6,760.2 651.6,767.9 659.3,767.9 659.3,695.5 651.6,695.5 	"/>
	<path d="M87.9,760.2v-56.9v-5.1c0,6.8-3,12.9-7.7,17.2v52.6h7.7V760.2z"/>
	<path d="M87.9,698.1v-2.6h-7.7v3.8v16C84.9,711,87.9,705,87.9,698.1z"/>
	<path d="M224.9,659.3c23.4,0,44.2,11.2,57.4,28.5h9.5c-14.3-21.8-39-36.2-66.9-36.2c-28,0-52.6,14.4-66.9,36.2h9.5
		C180.7,670.5,201.5,659.3,224.9,659.3z"/>
	<path d="M224.9,804.1c-23.4,0-44.2-11.2-57.4-28.5H158c14.3,21.8,39,36.2,66.9,36.2c28,0,52.6-14.4,66.9-36.2h-9.5
		C269.1,792.9,248.4,804.1,224.9,804.1z"/>
	<path d="M152.5,731.7c0-10.1,2.1-19.7,5.8-28.5h-8.3c-3.4,8.9-5.3,18.4-5.3,28.5c0,10,1.9,19.6,5.3,28.4h8.3
		C154.6,751.4,152.5,741.8,152.5,731.7z"/>
	<path d="M291.5,760.2h3.4c-0.6-1.5-1.2-3-1.7-4.6C292.7,757.1,292.1,758.7,291.5,760.2z"/>
	<path d="M294.9,703.2h-3.4c0.6,1.5,1.2,3,1.7,4.6C293.7,706.3,294.3,704.8,294.9,703.2z"/>
	<path d="M287.6,767.9c-1.6,2.7-3.3,5.3-5.2,7.7h9.5c1.6-2.5,3.1-5.1,4.5-7.7H287.6z"/>
	<path d="M162.3,767.9h-8.8c1.4,2.7,2.8,5.3,4.5,7.7h9.5C165.6,773.2,163.9,770.6,162.3,767.9z"/>
	<path d="M287.6,695.5h8.8c-1.4-2.7-2.8-5.3-4.5-7.7h-9.5C284.3,690.2,286,692.8,287.6,695.5z"/>
	<path d="M162.3,695.5c1.6-2.7,3.3-5.3,5.2-7.7H158c-1.6,2.5-3.1,5.1-4.5,7.7H162.3z"/>
	<path d="M294.9,703.2c0.7-1.9,1.6-3.8,2.4-5.7c-0.3-0.7-0.6-1.4-1-2.1h-8.8c1.4,2.5,2.8,5.1,3.9,7.7H294.9z"/>
	<path d="M158.4,760.2h-8.3c1,2.7,2.1,5.2,3.4,7.7h8.8C160.8,765.4,159.5,762.8,158.4,760.2z"/>
	<path d="M162.3,695.5h-8.8c-1.3,2.5-2.4,5.1-3.4,7.7h8.3C159.5,700.6,160.9,698,162.3,695.5z"/>
	<path d="M294.9,760.2h-3.4c-1.1,2.7-2.5,5.2-3.9,7.7h8.8c0.3-0.7,0.7-1.4,1-2.1C296.4,764,295.6,762.1,294.9,760.2z"/>
	<path d="M224.9,667.1c18.7,0,35.5,8,47.3,20.7h10.2c-13.2-17.3-34-28.5-57.4-28.5c-23.4,0-44.2,11.2-57.4,28.5h10.2
		C189.5,675.1,206.3,667.1,224.9,667.1z"/>
	<path d="M224.9,796.4c-18.7,0-35.5-8-47.3-20.7h-10.2c13.2,17.3,34,28.5,57.4,28.5c23.4,0,44.2-11.2,57.4-28.5h-10.2
		C260.4,788.3,243.6,796.4,224.9,796.4z"/>
	<path d="M289.6,731.7c0,10.2-2.4,19.8-6.7,28.4h8.6c0.6-1.5,1.2-3,1.7-4.6C290.9,748,289.6,740,289.6,731.7z"/>
	<path d="M293.2,707.8c-0.5-1.5-1.1-3.1-1.7-4.6h-8.6c4.2,8.6,6.7,18.2,6.7,28.5C289.6,723.4,290.9,715.4,293.2,707.8z"/>
	<path d="M160.3,731.7c0-10.2,2.4-19.9,6.7-28.5h-8.6c-3.7,8.7-5.8,18.4-5.8,28.5c0,10.1,2.1,19.7,5.8,28.4h8.6
		C162.7,751.6,160.3,741.9,160.3,731.7z"/>
	<path d="M177.6,687.8h-10.2c-1.9,2.5-3.6,5-5.2,7.7h9.1C173.3,692.7,175.4,690.2,177.6,687.8z"/>
	<path d="M272.2,775.6h10.2c1.9-2.5,3.6-5,5.2-7.7h-9.1C276.6,770.7,274.5,773.2,272.2,775.6z"/>
	<path d="M171.4,767.9h-9.1c1.6,2.7,3.3,5.3,5.2,7.7h10.2C175.4,773.2,173.3,770.7,171.4,767.9z"/>
	<path d="M278.5,695.5h9.1c-1.6-2.7-3.3-5.3-5.2-7.7h-10.2C274.5,690.2,276.6,692.7,278.5,695.5z"/>
	<path d="M282.9,760.2c-1.3,2.7-2.8,5.3-4.4,7.7h9.1c1.4-2.5,2.8-5.1,3.9-7.7H282.9z"/>
	<path d="M167,760.2h-8.6c1.1,2.7,2.5,5.2,3.9,7.7h9.1C169.7,765.4,168.3,762.8,167,760.2z"/>
	<path d="M167,703.2c1.3-2.7,2.8-5.3,4.4-7.7h-9.1c-1.4,2.5-2.8,5.1-3.9,7.7H167z"/>
	<path d="M282.9,703.2h8.6c-1.1-2.7-2.5-5.2-3.9-7.7h-9.1C280.1,698,281.6,700.6,282.9,703.2z"/>
	<path d="M369.7,804.1c-23.4,0-44.2-11.2-57.4-28.5h-9.5c14.3,21.8,39,36.2,66.9,36.2c28,0,52.6-14.4,66.9-36.2h-9.5
		C413.9,792.9,393.2,804.1,369.7,804.1z"/>
	<path d="M369.7,659.3c23.4,0,44.2,11.2,57.4,28.5h9.5c-14.3-21.8-39-36.2-66.9-36.2c-28,0-52.6,14.4-66.9,36.2h9.5
		C325.5,670.5,346.3,659.3,369.7,659.3z"/>
	<path d="M303.1,703.2h-3.4c0.6,1.5,1.2,3,1.7,4.6C302,706.3,302.5,704.7,303.1,703.2z"/>
	<path d="M439.7,703.2h-3.4c0.6,1.5,1.2,3,1.7,4.6C438.5,706.3,439.1,704.8,439.7,703.2z"/>
	<path d="M436.3,760.2h3.4c-0.6-1.5-1.2-3-1.7-4.6C437.5,757.1,436.9,758.7,436.3,760.2z"/>
	<path d="M299.8,760.2h3.4c-0.6-1.5-1.2-3-1.7-4.6C300.9,757.1,300.3,758.6,299.8,760.2z"/>
	<path d="M307.1,767.9h-8.8c1.4,2.7,2.8,5.3,4.5,7.7h9.5C310.4,773.2,308.7,770.6,307.1,767.9z"/>
	<path d="M432.4,695.5h8.8c-1.4-2.7-2.8-5.3-4.5-7.7h-9.5C429,690.2,430.8,692.8,432.4,695.5z"/>
	<path d="M307.1,695.5c1.6-2.7,3.3-5.3,5.2-7.7h-9.5c-1.6,2.5-3.1,5.1-4.5,7.7H307.1z"/>
	<path d="M432.4,767.9c-1.6,2.7-3.3,5.3-5.2,7.7h9.5c1.6-2.5,3.1-5.1,4.5-7.7H432.4z"/>
	<path d="M299.8,703.2h3.4c1.1-2.7,2.5-5.2,3.9-7.7h-8.8c-0.3,0.7-0.7,1.4-1,2.1C298.2,699.4,299,701.3,299.8,703.2z"/>
	<path d="M439.7,760.2h-3.4c-1.1,2.7-2.5,5.2-3.9,7.7h8.8c0.3-0.7,0.7-1.4,1-2.1C441.2,764,440.4,762.1,439.7,760.2z"/>
	<path d="M439.7,703.2c0.7-1.9,1.6-3.8,2.4-5.7c-0.3-0.7-0.6-1.4-1-2.1h-8.8c1.4,2.5,2.8,5.1,3.9,7.7H439.7z"/>
	<path d="M299.8,760.2c-0.7,1.9-1.5,3.8-2.4,5.7c0.3,0.7,0.6,1.4,1,2.1h8.8c-1.4-2.5-2.8-5.1-3.9-7.7H299.8z"/>
	<path d="M297.3,731.7c0,8.4-1.5,16.4-4.1,23.9c0.5,1.6,1.1,3.1,1.7,4.6h4.9c0.6-1.5,1.2-3,1.7-4.6
		C298.8,748.1,297.3,740.1,297.3,731.7z"/>
	<path d="M297.3,731.7c0-8.4,1.5-16.4,4.1-23.9c-0.5-1.6-1.1-3.1-1.7-4.6h-4.9c-0.6,1.5-1.2,3-1.7,4.6
		C295.8,715.3,297.3,723.3,297.3,731.7z"/>
	<path d="M297.3,765.8c0.9-1.9,1.7-3.8,2.4-5.7h-4.9C295.6,762.1,296.4,764,297.3,765.8z"/>
	<path d="M297.3,697.6c-0.9,1.9-1.7,3.8-2.4,5.7h4.9C299,701.3,298.2,699.4,297.3,697.6z"/>
	<path d="M297.3,731.7c0-8.4-1.5-16.4-4.1-23.9c-2.4,7.5-3.6,15.6-3.6,23.9c0,8.3,1.3,16.3,3.6,23.9
		C295.8,748.1,297.3,740.1,297.3,731.7z"/>
	<path d="M369.7,796.4c-18.7,0-35.5-8-47.3-20.7h-10.2c13.2,17.3,34,28.5,57.4,28.5c23.4,0,44.2-11.2,57.4-28.5H417
		C405.2,788.3,388.4,796.4,369.7,796.4z"/>
	<path d="M369.7,667.1c18.7,0,35.5,8,47.3,20.7h10.2c-13.2-17.3-34-28.5-57.4-28.5c-23.4,0-44.2,11.2-57.4,28.5h10.2
		C334.3,675.1,351,667.1,369.7,667.1z"/>
	<path d="M434.4,731.7c0,10.2-2.4,19.8-6.7,28.4h8.6c0.6-1.5,1.2-3,1.7-4.6C435.6,748,434.4,740,434.4,731.7z"/>
	<path d="M305.1,731.7c0-10.2,2.4-19.9,6.7-28.5h-8.6c-0.6,1.5-1.2,3-1.7,4.6C303.8,715.4,305.1,723.4,305.1,731.7z"/>
	<path d="M438,707.8c-0.5-1.5-1.1-3.1-1.7-4.6h-8.6c4.2,8.6,6.7,18.2,6.7,28.5C434.4,723.4,435.6,715.4,438,707.8z"/>
	<path d="M301.4,755.6c0.5,1.5,1.1,3.1,1.7,4.6h8.6c-4.2-8.6-6.7-18.2-6.7-28.4C305.1,740,303.8,748,301.4,755.6z"/>
	<path d="M417,775.6h10.2c1.9-2.5,3.6-5,5.2-7.7h-9.1C421.4,770.7,419.3,773.2,417,775.6z"/>
	<path d="M423.3,695.5h9.1c-1.6-2.7-3.3-5.3-5.2-7.7H417C419.3,690.2,421.4,692.7,423.3,695.5z"/>
	<path d="M322.4,687.8h-10.2c-1.9,2.5-3.6,5-5.2,7.7h9.1C318.1,692.7,320.2,690.2,322.4,687.8z"/>
	<path d="M316.2,767.9h-9.1c1.6,2.7,3.3,5.3,5.2,7.7h10.2C320.2,773.2,318.1,770.7,316.2,767.9z"/>
	<path d="M427.7,703.2h8.6c-1.1-2.7-2.5-5.2-3.9-7.7h-9.1C424.9,698,426.4,700.6,427.7,703.2z"/>
	<path d="M311.8,760.2h-8.6c1.1,2.7,2.5,5.2,3.9,7.7h9.1C314.5,765.4,313.1,762.8,311.8,760.2z"/>
	<path d="M427.7,760.2c-1.3,2.7-2.8,5.3-4.4,7.7h9.1c1.4-2.5,2.8-5.1,3.9-7.7H427.7z"/>
	<path d="M311.8,703.2c1.3-2.7,2.8-5.3,4.4-7.7h-9.1c-1.4,2.5-2.8,5.1-3.9,7.7H311.8z"/>
	<path d="M305.1,731.7c0-8.3-1.3-16.3-3.6-23.9c-2.6,7.5-4.1,15.5-4.1,23.9c0,8.4,1.5,16.4,4.1,23.9
		C303.8,748,305.1,740,305.1,731.7z"/>
	<path d="M514.5,659.3c23.4,0,44.2,11.2,57.4,28.5h9.5c-14.3-21.8-39-36.2-66.9-36.2c-28,0-52.6,14.4-66.9,36.2h9.5
		C470.3,670.5,491.1,659.3,514.5,659.3z"/>
	<path d="M514.5,804.1c-23.4,0-44.2-11.2-57.4-28.5h-9.5c14.3,21.8,39,36.2,66.9,36.2c28,0,52.6-14.4,66.9-36.2H572
		C558.7,792.9,537.9,804.1,514.5,804.1z"/>
	<path d="M586.9,731.7c0,10.1-2.1,19.7-5.8,28.4h8.2c3.4-8.9,5.3-18.4,5.3-28.4c0-10-1.9-19.6-5.3-28.5h-8.2
		C584.8,712,586.9,721.6,586.9,731.7z"/>
	<path d="M444.5,760.2h3.4c-0.6-1.5-1.2-3-1.7-4.6C445.7,757.1,445.1,758.6,444.5,760.2z"/>
	<path d="M447.9,703.2h-3.4c0.6,1.5,1.2,3,1.7,4.6C446.8,706.3,447.3,704.7,447.9,703.2z"/>
	<path d="M451.9,695.5c1.6-2.7,3.3-5.3,5.2-7.7h-9.5c-1.6,2.5-3.1,5.1-4.5,7.7H451.9z"/>
	<path d="M451.9,767.9h-8.8c1.4,2.7,2.8,5.3,4.5,7.7h9.5C455.2,773.2,453.4,770.6,451.9,767.9z"/>
	<path d="M572,775.6h9.5c1.6-2.5,3.1-5.1,4.5-7.7h-8.8C575.6,770.6,573.8,773.2,572,775.6z"/>
	<path d="M577.1,695.5h8.8c-1.4-2.7-2.8-5.3-4.5-7.7H572C573.8,690.2,575.6,692.8,577.1,695.5z"/>
	<path d="M581.1,703.2h8.2c-1-2.7-2.1-5.2-3.4-7.7h-8.8C578.6,698,579.9,700.6,581.1,703.2z"/>
	<path d="M577.1,767.9h8.8c1.3-2.5,2.4-5.1,3.4-7.7h-8.2C579.9,762.8,578.6,765.4,577.1,767.9z"/>
	<path d="M444.5,760.2c-0.7,1.9-1.6,3.8-2.4,5.7c0.3,0.7,0.6,1.4,1,2.1h8.8c-1.5-2.5-2.8-5.1-3.9-7.7H444.5z"/>
	<path d="M444.5,703.2h3.4c1.1-2.7,2.5-5.2,3.9-7.7h-8.8c-0.3,0.7-0.7,1.4-1,2.1C443,699.4,443.8,701.3,444.5,703.2z"/>
	<path d="M442.1,731.7c0-8.4,1.5-16.4,4.1-23.9c-0.5-1.6-1.1-3.1-1.7-4.6h-4.9c-0.6,1.5-1.2,3-1.7,4.6
		C440.6,715.3,442.1,723.3,442.1,731.7z"/>
	<path d="M442.1,731.7c0,8.4-1.5,16.4-4.1,23.9c0.5,1.6,1.1,3.1,1.7,4.6h4.9c0.6-1.5,1.2-3,1.7-4.6
		C443.6,748.1,442.1,740.1,442.1,731.7z"/>
	<path d="M442.1,765.8c0.9-1.9,1.7-3.8,2.4-5.7h-4.9C440.4,762.1,441.2,764,442.1,765.8z"/>
	<path d="M442.1,697.6c-0.9,1.9-1.7,3.8-2.4,5.7h4.9C443.8,701.3,443,699.4,442.1,697.6z"/>
	<path d="M442.1,731.7c0-8.4-1.5-16.4-4.1-23.9c-2.4,7.5-3.6,15.6-3.6,23.9c0,8.3,1.3,16.3,3.6,23.9
		C440.6,748.1,442.1,740.1,442.1,731.7z"/>
	<path d="M514.5,796.4c-18.7,0-35.5-8-47.3-20.7h-10.2c13.2,17.3,34,28.5,57.4,28.5c23.4,0,44.2-11.2,57.4-28.5h-10.2
		C550,788.3,533.2,796.4,514.5,796.4z"/>
	<path d="M514.5,667.1c18.7,0,35.5,8,47.3,20.7H572c-13.2-17.3-34-28.5-57.4-28.5c-23.4,0-44.2,11.2-57.4,28.5h10.2
		C479,675.1,495.8,667.1,514.5,667.1z"/>
	<path d="M579.2,731.7c0,10.2-2.4,19.8-6.7,28.4h8.6c3.7-8.7,5.8-18.3,5.8-28.4c0-10.1-2.1-19.7-5.8-28.5h-8.6
		C576.7,711.8,579.2,721.5,579.2,731.7z"/>
	<path d="M446.2,755.6c0.5,1.5,1.1,3.1,1.7,4.6h8.6c-4.2-8.6-6.7-18.2-6.7-28.4C449.9,740,448.6,748,446.2,755.6z"/>
	<path d="M449.9,731.7c0-10.2,2.4-19.9,6.7-28.5h-8.6c-0.6,1.5-1.2,3-1.7,4.6C448.6,715.4,449.9,723.4,449.9,731.7z"/>
	<path d="M568,695.5h9.1c-1.6-2.7-3.3-5.3-5.2-7.7h-10.2C564.1,690.2,566.2,692.7,568,695.5z"/>
	<path d="M467.2,687.8h-10.2c-1.9,2.5-3.6,5-5.2,7.7h9.1C462.8,692.7,465,690.2,467.2,687.8z"/>
	<path d="M461,767.9h-9.1c1.6,2.7,3.3,5.3,5.2,7.7h10.2C465,773.2,462.8,770.7,461,767.9z"/>
	<path d="M561.8,775.6H572c1.9-2.5,3.6-5,5.2-7.7H568C566.2,770.7,564.1,773.2,561.8,775.6z"/>
	<path d="M568,767.9h9.1c1.5-2.5,2.8-5.1,3.9-7.7h-8.6C571.2,762.8,569.7,765.4,568,767.9z"/>
	<path d="M572.5,703.2h8.6c-1.1-2.7-2.5-5.2-3.9-7.7H568C569.7,698,571.2,700.6,572.5,703.2z"/>
	<path d="M456.5,703.2c1.3-2.7,2.8-5.3,4.4-7.7h-9.1c-1.4,2.5-2.8,5.1-3.9,7.7H456.5z"/>
	<path d="M456.5,760.2h-8.6c1.1,2.7,2.5,5.2,3.9,7.7h9.1C459.3,765.4,457.9,762.8,456.5,760.2z"/>
	<path d="M449.9,731.7c0-8.3-1.3-16.3-3.6-23.9c-2.6,7.5-4.1,15.5-4.1,23.9c0,8.4,1.5,16.4,4.1,23.9
		C448.6,748,449.9,740,449.9,731.7z"/>
	<path d="M377.5,948.9c0-4.3-3.5-7.7-7.7-7.7c-4.3,0-7.7,3.5-7.7,7.7v28.5h15.5V948.9z"/>
	<rect x="362" y="977.3" width="15.5" height="7.7"/>
	<path d="M362,985.1c0,4.3,3.5,7.7,7.7,7.7c4.3,0,7.7-3.5,7.7-7.7v0L362,985.1L362,985.1z"/>
</g>
</svg>
