<svg id="dd-logo" data-name="dd-logo" xmlns="http://www.w3.org/2000/svg" viewBox="0 0 623.6 201.8"><path d="M293.4,42.4h32.3s32-.7,31.7,28.4c-.3,21.7-31,24.9-31,24.9h-33Zm96.7,104.5c.9,4.2,4,8.9,14.2,9.3,13.6.4,21.4-4.8,21.4-4.8v10s-14.9,3.6-22,3.6-29.5-1.7-29.5-22c0-16.5,18.2-21.7,28.5-21.7,18.1.6,26.8,7.1,26.5,25.5,0,.3-29.8.1-39.1.1m.1-8.1H415s0-9.4-12-9.4c-9,0-11.9,4.8-12.8,9.4m78.5-10.2c3.6-3.9,9.6-7,19.7-7,20.1,0,23.3,16.8,23,21.4s-2,21.6-25.2,21.6c-8.8,0-14.2-3-17.5-6.7v5.4H452.8V105.1h15.9Zm13.6,27c9.3-.3,13.6-8.4,13.6-12.3s-2.3-12-14.3-12c-9.3,0-12.1,7-12.9,10.5V146c.8,3.5,3.6,9.6,13.6,9.6M619.1,154l.3,9a74.3,74.3,0,0,1-12.3,1.6c-4.8,0-17.4-2.9-17.4-15.2V130.7H576.4v-8.4h13.3V112.2h16.1v10.1h13.3v8.4H605.8v16.1s0,8.1,6.5,8.1,6.8-.9,6.8-.9M569.9,51.1h18.8v45h15.8v-45h19.1V41.7H569.9Zm-6.4,2.3,1.9-9.4s-8.1-3.6-22.3-3.6-36.3,7.8-36.3,28.8S530.5,97,545,97s19.4-2.2,19.4-2.2l-1.6-10.4s-6.5,2-17.5,2-21.6-8.8-21.6-18.1,10-17.8,22.6-17.8a52.7,52.7,0,0,1,17.2,2.9m-143-11.3S447,40.8,447,56.3c0,13.2-15.2,14.2-15.2,14.2s4.2.7,6.2,3.6,12.2,22,12.2,22H434.1a65.8,65.8,0,0,1-3.9-5.5c-1-2.3-3.9-7.1-3.9-7.1s-2.2-8.1-10-8.1l-5.8-.3v21H394.9v-54Zm-10,24.2h8.4s11.6-.6,12.3-7.8-11.4-7.7-11.4-7.7h-9.3Zm65,8.4h25.9v-10H475.5V52.4h28.1V42.1h-44v54h44.3V86.4H475.5Zm63.1,41.4h15.8v-11H538.6Zm0,47.2h15.8v-41H538.6ZM365.8,96.1h15.6v-54H365.8Zm-72.4,13.6h32.3s32-.7,31.7,28.4c-.3,21.7-31,24.9-31,24.9h-33ZM309.2,153h10.4s21.3-1.3,21.3-17.8-22.6-18.1-22.6-18.1h-9.1Zm0-67.3h10.4s21.3-1.6,21.3-17.8-22.6-18.1-22.6-18.1h-9.1Z" style="fill:#1d1d1b;fill-rule:evenodd"/><path d="M148.1,74.5V182.7s-62.7-11.3-62.7-54.3c0-34.3,46.4-49.4,62.7-53.9m0-2c-37.7-2.7-123.2,15-123.2,53.6,0,25.3,45.3,62.2,119,63.1,2.9,0,86.7-3.2,85.4-93.1C228.2,20.5,171.7,7.3,153.6,5V.4C225.7,5,282.4,48.3,282.4,100.9c0,55.7-63.4,100.9-141.4,100.9S0,156.6,0,100.9,63.1,0,141,0h7.1Z" style="fill:#1d1d1b;fill-rule:evenodd"/></svg>
