<svg id="Layer_1" data-name="Layer 1" xmlns="http://www.w3.org/2000/svg" viewBox="0 0 789 331.1"><polygon points="55.3 208.9 92.6 208.9 92.6 246.4 55.3 246.3 55.3 208.9" style="fill:#1ab664"/><path d="M184.2,226.3a21.6,21.6,0,0,1-10.8,2.5,22.3,22.3,0,0,1-10.5-2.4,24.1,24.1,0,0,1-7.8-6.3,28.9,28.9,0,0,1-4.6-9.1,32.8,32.8,0,0,1-1.6-10.4,36.3,36.3,0,0,1,1.5-10.4,25.6,25.6,0,0,1,4.6-9,22.8,22.8,0,0,1,7.7-6.4,21.4,21.4,0,0,1,10.7-2.5,22.5,22.5,0,0,1,18.2,8.5,26,26,0,0,1,4.8,9,36,36,0,0,1,.1,20.9,32.5,32.5,0,0,1-4.6,9.1A24.5,24.5,0,0,1,184.2,226.3Z" transform="translate(0 0)" style="fill:#1ab664"/><polygon points="286.1 232 306.5 191.2 306.5 246.6 254.2 246.5 254.2 191.2 274.5 232 286.1 232" style="fill:#1ab664"/><polygon points="547.9 178.2 558.8 211.4 536.6 211.4 547.9 178.2" style="fill:#1ab664"/><polygon points="562.4 226.3 569.5 246.9 526.3 246.8 533.2 226.3 562.4 226.3" style="fill:#1ab664"/><path d="M642.5,198.2H622.7V172.6h19.1a9.2,9.2,0,0,1,6.9,3.4,13.2,13.2,0,0,1,3.2,9.2,14.5,14.5,0,0,1-2.8,9.3A7.9,7.9,0,0,1,642.5,198.2Z" transform="translate(0 0)" style="fill:#1ab664"/><polygon points="636.8 217.1 654.6 246.9 622.7 246.9 622.7 217.1 636.8 217.1" style="fill:#1ab664"/><path d="M789,137.9V239.7a7.4,7.4,0,0,1-7.4,7.4H755.4V228.3H711.1v-20h37V190.8h-37V172.6h43.1v-19H689.5V247H679l-20.4-34.6a28.3,28.3,0,0,0,11.2-11.2,33.7,33.7,0,0,0,3.1-7.6,33.3,33.3,0,0,0,1-8.4,30.5,30.5,0,0,0-2.3-11.4,33.3,33.3,0,0,0-16.1-17.5,27.6,27.6,0,0,0-12.2-2.7H601.1v93.3h-9.4l-34.1-93.3H538.1l-34,93.2H475.2l.6-.2a49.3,49.3,0,0,0,11.5-4.2,39.1,39.1,0,0,0,9.6-6.9,28.2,28.2,0,0,0,6.2-9.2l-17.7-10.4a18.6,18.6,0,0,1-3.8,6,21.5,21.5,0,0,1-5.2,3.9,26.7,26.7,0,0,1-5.9,2.3,25.8,25.8,0,0,1-6,.7,23.3,23.3,0,0,1-10.3-2.3,23.6,23.6,0,0,1-7.8-6.3,28.5,28.5,0,0,1-4.9-9.1,32,32,0,0,1-1.7-10.7,38.5,38.5,0,0,1,1.4-10.1,27.2,27.2,0,0,1,4.5-9,23.2,23.2,0,0,1,7.7-6.5,21.8,21.8,0,0,1,10.8-2.5,30.3,30.3,0,0,1,5.9.6,22.6,22.6,0,0,1,6,2.1,20,20,0,0,1,5.3,4,18,18,0,0,1,4,6.1l16.7-11.6a36.8,36.8,0,0,0-14.5-14.8c-6.4-3.8-14.1-5.7-22.9-5.7a46.4,46.4,0,0,0-19.8,4.1,48.9,48.9,0,0,0-14.8,10.7,46.4,46.4,0,0,0-9.2,15,47.6,47.6,0,0,0-3.2,16.8,51.1,51.1,0,0,0,12.9,33.3,47.3,47.3,0,0,0,14.7,11,33.7,33.7,0,0,0,7.7,2.8H411.9V228.3H367.7v-20h37V190.8h-37V172.6h43v-19H346.1v93h-18v-93H304.8l-24.5,48.9L256,153.6H232.6v92.9h-47a38.1,38.1,0,0,0,6.4-2.4,45.2,45.2,0,0,0,14.8-10.5,46,46,0,0,0,9.7-15.1,45.6,45.6,0,0,0,3.5-17.8,48,48,0,0,0-3.3-17.4,46.1,46.1,0,0,0-9.4-15.3,46.9,46.9,0,0,0-14.6-10.9,44.1,44.1,0,0,0-19-4.1,45.2,45.2,0,0,0-18.8,3.9,47.4,47.4,0,0,0-14.8,10.5,48,48,0,0,0-9.8,15.1,47.1,47.1,0,0,0-3.5,17.8,49.6,49.6,0,0,0,12.8,32.9A46.7,46.7,0,0,0,154.3,244a37.1,37.1,0,0,0,6.6,2.4H114.3V153.6H92.6v36.3H55.3V153.6H33.7v92.7H7.4A7.4,7.4,0,0,1,0,238.9V134.8a7.4,7.4,0,0,1,4-6.6L250.1.8a7.8,7.8,0,0,1,5.2-.6L783.4,130.7A7.4,7.4,0,0,1,789,137.9Z" transform="translate(0 0)" style="fill:#1ab664"/><path d="M60.5,312.7a9.5,9.5,0,0,0-2.7-3.6,13.4,13.4,0,0,0-4.2-2.5c-1.7-.7-3.6-1.3-5.6-1.9l-4-1.1-2.8-1a5.4,5.4,0,0,1-1.8-1.4,3.2,3.2,0,0,1-.5-1.8c0-2.4,1.8-3.6,5.3-3.6a13.2,13.2,0,0,1,3.9.6,30.4,30.4,0,0,1,3.6,1.2l2.8,1.4,1.3,1,4.4-8.3L57,290l-3.8-1.6L49,287.3a22.8,22.8,0,0,0-4.5-.4,20.5,20.5,0,0,0-6.1.9,15.6,15.6,0,0,0-5.1,2.7,14.3,14.3,0,0,0-3.5,4.5,14,14,0,0,0-1.2,6,11.8,11.8,0,0,0,.7,4.3,7.5,7.5,0,0,0,2.1,3.2A16.4,16.4,0,0,0,35,311c1.5.7,3.2,1.3,5.2,2l4.2,1.2a12.7,12.7,0,0,1,3.3,1.2,7.6,7.6,0,0,1,2.2,1.4,2.8,2.8,0,0,1,.8,2c0,2.2-1.8,3.2-5.3,3.2a19.9,19.9,0,0,1-4.9-.6,39,39,0,0,1-4.5-1.6,16.9,16.9,0,0,1-3.3-1.7,7.7,7.7,0,0,1-1.6-1.1l-4.4,8.7a33,33,0,0,0,4.1,2.3,37.1,37.1,0,0,0,4.7,1.6,25.7,25.7,0,0,0,4.8,1.1,42.2,42.2,0,0,0,4.9.4,30.8,30.8,0,0,0,6.1-.7,16.9,16.9,0,0,0,5.1-2.3,11.3,11.3,0,0,0,3.7-4.1,15.2,15.2,0,0,0,.4-11.3Z" transform="translate(0 0)" style="fill:#1ab664"/><path d="M83.4,321.8v-9.2h17.1v-8.1H83.4v-8.4h19.9v-8.8H73.4v43.3h30.4v-8.8Z" transform="translate(0 0)" style="fill:#1ab664"/><path d="M142.6,314.5a16.6,16.6,0,0,0,3-2.2,12.9,12.9,0,0,0,2.2-3,15.1,15.1,0,0,0,1.4-3.5,16.7,16.7,0,0,0,.5-3.9,14.4,14.4,0,0,0-1.1-5.3,17.5,17.5,0,0,0-2.9-4.7,14.5,14.5,0,0,0-4.5-3.3,11.8,11.8,0,0,0-5.6-1.3H116v43.3h10v-14h6.6l8.3,14h11.2Zm-4.4-8.3a3.6,3.6,0,0,1-3,1.7H126V296.1h8.9a4.5,4.5,0,0,1,3.2,1.5,7.5,7.5,0,0,1,.1,8.6Z" transform="translate(0 0)" style="fill:#1ab664"/><path d="M188.5,287.3,178.4,318l-10.2-30.7H157.6l16.6,43.3h8.4l16.5-43.3Z" transform="translate(0 0)" style="fill:#1ab664"/><path d="M209.2,287.3v43.3h10V287.3Z" transform="translate(0 0)" style="fill:#1ab664"/><path d="M262.4,316.1a9.1,9.1,0,0,1-1.8,2.7,8.8,8.8,0,0,1-2.4,1.9,13.3,13.3,0,0,1-2.8,1,12.4,12.4,0,0,1-2.7.3,10.6,10.6,0,0,1-4.8-1,11.2,11.2,0,0,1-3.6-2.9,12,12,0,0,1-2.2-4.2,14.2,14.2,0,0,1-.8-5,18.9,18.9,0,0,1,.6-4.7,14.4,14.4,0,0,1,2.1-4.1,11.4,11.4,0,0,1,3.5-3,10.3,10.3,0,0,1,5-1.2,13.3,13.3,0,0,1,2.8.3,9.9,9.9,0,0,1,2.7,1,11.4,11.4,0,0,1,2.5,1.8,9.2,9.2,0,0,1,1.9,2.8l7.7-5.3a16.8,16.8,0,0,0-6.7-6.8,20.1,20.1,0,0,0-10.6-2.7,20.9,20.9,0,0,0-16,6.9,20.6,20.6,0,0,0-4.3,6.9,23.8,23.8,0,0,0-1.4,7.8,22.8,22.8,0,0,0,1.5,8.1,24,24,0,0,0,4.4,7.2,22.9,22.9,0,0,0,6.8,5.1,19,19,0,0,0,8.6,1.9,26.4,26.4,0,0,0,5.5-.6,22.4,22.4,0,0,0,5.3-2,15.8,15.8,0,0,0,4.4-3.1,12.1,12.1,0,0,0,2.9-4.3Z" transform="translate(0 0)" style="fill:#1ab664"/><path d="M291.6,321.8v-9.2h17.1v-8.1H291.6v-8.4h19.9v-8.8H281.6v43.3h30.5v-8.8Z" transform="translate(0 0)" style="fill:#1ab664"/><path d="M373.4,316.1a9.1,9.1,0,0,1-1.8,2.7,8.8,8.8,0,0,1-2.4,1.9,14.8,14.8,0,0,1-2.7,1l-2.8.3a10.2,10.2,0,0,1-4.7-1,11.2,11.2,0,0,1-3.6-2.9,12.2,12.2,0,0,1-2.3-4.2,14.2,14.2,0,0,1-.8-5,18.9,18.9,0,0,1,.6-4.7,14.4,14.4,0,0,1,2.1-4.1,11.8,11.8,0,0,1,3.6-3,9.7,9.7,0,0,1,5-1.2,12.4,12.4,0,0,1,2.7.3,10.5,10.5,0,0,1,2.8,1,13.7,13.7,0,0,1,2.4,1.8,9.2,9.2,0,0,1,1.9,2.8l7.7-5.3a16.8,16.8,0,0,0-6.7-6.8,20.1,20.1,0,0,0-10.6-2.7,21.3,21.3,0,0,0-16,6.9,20.3,20.3,0,0,0-4.2,6.9,21.6,21.6,0,0,0-1.5,7.8,22.8,22.8,0,0,0,1.5,8.1,24,24,0,0,0,4.4,7.2,22.9,22.9,0,0,0,6.8,5.1,19,19,0,0,0,8.6,1.9,25.7,25.7,0,0,0,5.5-.6,22.4,22.4,0,0,0,5.3-2,18,18,0,0,0,4.5-3.1,15.5,15.5,0,0,0,2.9-4.3Z" transform="translate(0 0)" style="fill:#1ab664"/><path d="M402.7,321.8v-9.2h17v-8.1h-17v-8.4h19.8v-8.8H392.7v43.3h30.4v-8.8Z" transform="translate(0 0)" style="fill:#1ab664"/><path d="M463.3,287.3v25.4l-20.2-25.4h-7.8v43.3h10V305.8l19.9,24.8h8.1V287.3Z" transform="translate(0 0)" style="fill:#1ab664"/><path d="M484.3,287.3v8.8h13.2v34.5h10V296.1h13.2v-8.8Z" transform="translate(0 0)" style="fill:#1ab664"/><path d="M558.3,314.5a15.8,15.8,0,0,0,2.9-2.2,17,17,0,0,0,2.3-3,21.3,21.3,0,0,0,1.4-3.5,16.7,16.7,0,0,0,.4-3.9,14.2,14.2,0,0,0-1-5.3,15.7,15.7,0,0,0-3-4.7,12.5,12.5,0,0,0-4.5-3.3,11.8,11.8,0,0,0-5.6-1.3H531.7v43.3h10v-14h6.5l8.3,14h11.3Zm-4.4-8.3a4,4,0,0,1-3.1,1.7h-9.1V296.1h8.8a4.4,4.4,0,0,1,3.2,1.5,6.1,6.1,0,0,1,1.5,4.3A7.1,7.1,0,0,1,553.9,306.2Z" transform="translate(0 0)" style="fill:#1ab664"/><path d="M588.6,321.8v-9.2h17.1v-8.1H588.6v-8.4h19.9v-8.8H578.6v43.3h30.5v-8.8Z" transform="translate(0 0)" style="fill:#1ab664"/></svg>